g GPRuinBlockQuarter
v -0.4617094 0.4053693 1
v -0.3017884 0.2454483 1
v -0.3017884 -0.2681639 1
v -0.4617094 -0.4280848 1
v 0.4581326 -0.4202946 1
v 0.2982116 -0.2603737 1
v 0.2982116 0.2454483 1
v 0.4581326 0.4053693 1
v -0.4546994 0.4925373 -2.012064E-10
v 0.4511226 0.4925373 -2.012064E-10
v 0.4511226 0.4925373 0.959921
v -0.4546994 0.4925373 0.959921
v 0.4511226 -0.5074626 -2.012064E-10
v -0.4624895 -0.5074626 -2.012064E-10
v -0.4624895 -0.5074626 0.959921
v 0.4511226 -0.5074626 0.959921
v 0.4110436 0.4524583 1
v 0.2511227 0.2925373 1
v -0.2546994 0.2925373 1
v -0.4146204 0.4524583 1
v -0.4224105 -0.4673836 1
v -0.2624895 -0.3074627 1
v 0.2511227 -0.3074627 1
v 0.4110436 -0.4673836 1
v 0.4110436 -0.4673836 1
v 0.4511226 -0.5074626 0.959921
v -0.4624895 -0.5074626 0.959921
v -0.4224105 -0.4673836 1
v 0.2511227 0.2925373 1
v 0.2982116 0.2454483 1
v 0.2982116 -0.2603737 1
v 0.2511227 -0.3074627 1
v -0.2546994 0.2925373 1
v -0.2624895 -0.3074627 1
v -0.3017884 0.2454483 1
v -0.3017884 -0.2681639 1
v 0.4982116 0.4454483 -2.012064E-10
v 0.4982116 -0.4603736 -2.012064E-10
v 0.4982116 -0.4603736 0.959921
v 0.4982116 0.4454483 0.959921
v -0.4146204 0.4524583 1
v -0.4546994 0.4925373 0.959921
v 0.4511226 0.4925373 0.959921
v 0.4110436 0.4524583 1
v 0.4581326 0.4053693 1
v 0.4982116 0.4454483 0.959921
v 0.4982116 -0.4603736 0.959921
v 0.4581326 -0.4202946 1
v -0.4617094 -0.4280848 1
v -0.5017884 -0.4681638 0.959921
v -0.5017884 0.4454483 0.959921
v -0.4617094 0.4053693 1
v -0.5017884 -0.4681638 -2.012064E-10
v -0.5017884 0.4454483 -2.012064E-10
v -0.5017884 0.4454483 0.959921
v -0.5017884 -0.4681638 0.959921
v 0.4982116 -0.4603736 -2.012064E-10
v 0.4511226 -0.5074626 -2.012064E-10
v 0.4511226 -0.5074626 0.959921
v 0.4982116 -0.4603736 0.959921
v 0.4110436 -0.4673836 1
v 0.4581326 -0.4202946 1
v 0.2511227 -0.3074627 1
v 0.2982116 -0.2603737 1
v -0.5017884 -0.4681638 0.959921
v -0.4624895 -0.5074626 -2.012064E-10
v -0.5017884 -0.4681638 -2.012064E-10
v -0.4624895 -0.5074626 0.959921
v -0.4617094 -0.4280848 1
v -0.4224105 -0.4673836 1
v -0.3017884 -0.2681639 1
v -0.2624895 -0.3074627 1
v -0.4546994 0.4925373 0.959921
v -0.5017884 0.4454483 -2.012064E-10
v -0.4546994 0.4925373 -2.012064E-10
v -0.5017884 0.4454483 0.959921
v -0.4146204 0.4524583 1
v -0.4617094 0.4053693 1
v -0.2546994 0.2925373 1
v -0.3017884 0.2454483 1
v 0.4982116 0.4454483 0.959921
v 0.4511226 0.4925373 -2.012064E-10
v 0.4982116 0.4454483 -2.012064E-10
v 0.4511226 0.4925373 0.959921
v 0.4581326 0.4053693 1
v 0.4110436 0.4524583 1
v 0.2982116 0.2454483 1
v 0.2511227 0.2925373 1
v 0.4511226 -0.5074626 -2.012064E-10
v 0.4982116 -0.4603736 -2.012064E-10
v 0.4982116 0.4454483 -2.012064E-10
v 0.4511226 0.4925373 -2.012064E-10
v -0.4624895 -0.5074626 -2.012064E-10
v -0.4546994 0.4925373 -2.012064E-10
v -0.5017884 0.4454483 -2.012064E-10
v -0.5017884 -0.4681638 -2.012064E-10
vt 1.425832 0.7380008
vt 1.416286 0.5295631
vt -0.4257662 0.5295631
vt -0.4337343 0.7380008
vt 1.425832 0.7380008
vt 1.416286 0.5295631
vt -0.4162856 0.5295631
vt -0.4258332 0.7380008
vt 1.500904 0.05116719
vt -0.5116922 0.05116671
vt -0.5116922 0.5580171
vt 1.500903 0.5580173
vt 1.50913 0.05125414
vt -0.5116923 0.05125414
vt -0.5116922 0.5581045
vt 1.50913 0.5581043
vt 1.425832 0.7380008
vt 1.416286 0.5295631
vt -0.4162856 0.5295631
vt -0.4258333 0.7380008
vt 1.433733 0.7380008
vt 1.425766 0.5295631
vt -0.4162856 0.5295631
vt -0.4258333 0.7380008
vt -0.5295782 0.7853002
vt -0.5315444 0.843606
vt 1.382068 0.8436064
vt 1.380427 0.7853004
vt 0.9705027 0.4999999
vt 0.9999292 0.4852867
vt 0.9999292 0.01478392
vt 0.9705028 7.070068E-05
vt 0.02949716 0.5
vt 0.02462907 7.070068E-05
vt 7.070178E-05 0.4852867
vt 7.073702E-05 0.0123499
vt 1.500903 0.05107982
vt -0.5116923 0.05107982
vt -0.5116922 0.5579302
vt 1.500903 0.5579299
vt -0.5295782 0.7853002
vt -0.5315444 0.843606
vt 1.374278 0.8436064
vt 1.372312 0.7853004
vt -0.5295782 0.7853002
vt -0.5315442 0.843606
vt 1.374278 0.8436064
vt 1.372312 0.7853004
vt -0.5376936 0.7853002
vt -0.5393345 0.843606
vt 1.374278 0.8436064
vt 1.372312 0.7853004
vt 1.50948 0.05134162
vt -0.5113423 0.05099252
vt -0.5116926 0.5578429
vt 1.50913 0.5581918
vt -1.053833 0.5844993
vt -1.053833 0.6962895
vt 0.4749204 0.6962886
vt 0.4749205 0.5844989
vt 0.5854757 0.6962884
vt 0.5854757 0.5844989
vt 0.9456579 0.6962884
vt 0.9456577 0.5844988
vt 0.4748985 0.6965258
vt -1.053833 0.584931
vt -1.053833 0.6965239
vt 0.4748985 0.5849287
vt 0.585456 0.6965258
vt 0.5854561 0.5849288
vt 0.9456456 0.6965258
vt 0.9456455 0.5849288
vt 0.4749185 0.6953657
vt -1.053833 0.5835757
vt -1.053833 0.6953653
vt 0.4749185 0.5835756
vt 0.5854743 0.6953658
vt 0.5854743 0.5835756
vt 0.9456579 0.6953657
vt 0.9456579 0.5835756
vt 0.4749181 0.6951193
vt -1.053833 0.5833308
vt -1.053833 0.6951203
vt 0.474918 0.5833292
vt 0.5854737 0.6951194
vt 0.5854738 0.5833292
vt 0.9456577 0.6951196
vt 0.9456577 0.5833295
vt 0.9763882 0.5
vt 0.9999293 0.4882294
vt 0.9999293 0.0118413
vt 0.9763882 7.070068E-05
vt 0.01971737 0.5
vt 0.02361192 7.070068E-05
vt 7.075888E-05 0.01184131
vt 7.070186E-05 0.4901767
vn -0.3847308 0.01434527 0.9229174
vn 0 0 1
vn 0 0 1
vn -0.3912708 -0.01225117 0.9201941
vn 0.384771 -0.01447102 0.9228987
vn 0 0 1
vn 0 0 1
vn 0.384771 0.01447101 0.9228987
vn -0.04397474 0.8898891 -0.4540524
vn 0.04397868 0.8899688 -0.4538957
vn 0.05013631 0.9983911 0.02648689
vn -0.05013631 0.9983911 0.02648689
vn 0.04367601 -0.8910705 -0.4517586
vn -0.03678767 -0.8920209 -0.4504947
vn -0.04186391 -0.998784 0.02603786
vn 0.04973063 -0.9984118 0.02647315
vn 0.01447104 0.3847711 0.9228985
vn 0 0 1
vn 0 0 1
vn -0.01447104 0.3847711 0.9228985
vn -0.01225115 -0.3912708 0.920194
vn 0 0 1
vn 0 0 1
vn 0.01434528 -0.384731 0.9229172
vn 0.01434528 -0.384731 0.9229172
vn 0.04973063 -0.9984118 0.02647315
vn -0.04186391 -0.998784 0.02603786
vn -0.01225115 -0.3912708 0.920194
vn 0 0 1
vn 0 0 1
vn 0 0 1
vn 0 0 1
vn 0 0 1
vn 0 0 1
vn 0 0 1
vn 0 0 1
vn 0.9980423 0.0493192 -0.03845775
vn 0.9981725 -0.04932563 -0.0349093
vn 0.9983911 -0.05013626 0.0264869
vn 0.9983911 0.05013626 0.02648691
vn -0.01447104 0.3847711 0.9228985
vn -0.05013631 0.9983911 0.02648689
vn 0.05013631 0.9983911 0.02648689
vn 0.01447104 0.3847711 0.9228985
vn 0.384771 0.01447101 0.9228987
vn 0.9983911 0.05013626 0.02648691
vn 0.9983911 -0.05013626 0.0264869
vn 0.384771 -0.01447102 0.9228987
vn -0.3912708 -0.01225117 0.9201941
vn -0.998784 -0.04186398 0.02603786
vn -0.9984118 0.04973064 0.02647315
vn -0.3847308 0.01434527 0.9229174
vn -0.9987187 -0.04118805 -0.02940077
vn -0.9980881 0.04892151 -0.03777169
vn -0.9984118 0.04973064 0.02647315
vn -0.998784 -0.04186398 0.02603786
vn 0.9981725 -0.04932563 -0.0349093
vn 0.04367601 -0.8910705 -0.4517586
vn 0.04973063 -0.9984118 0.02647315
vn 0.9983911 -0.05013626 0.0264869
vn 0.01434528 -0.384731 0.9229172
vn 0.384771 -0.01447102 0.9228987
vn 0 0 1
vn 0 0 1
vn -0.998784 -0.04186398 0.02603786
vn -0.03678767 -0.8920209 -0.4504947
vn -0.9987187 -0.04118805 -0.02940077
vn -0.04186391 -0.998784 0.02603786
vn -0.3912708 -0.01225117 0.9201941
vn -0.01225115 -0.3912708 0.920194
vn 0 0 1
vn 0 0 1
vn -0.05013631 0.9983911 0.02648689
vn -0.9980881 0.04892151 -0.03777169
vn -0.04397474 0.8898891 -0.4540524
vn -0.9984118 0.04973064 0.02647315
vn -0.01447104 0.3847711 0.9228985
vn -0.3847308 0.01434527 0.9229174
vn 0 0 1
vn 0 0 1
vn 0.9983911 0.05013626 0.02648691
vn 0.04397868 0.8899688 -0.4538957
vn 0.9980423 0.0493192 -0.03845775
vn 0.05013631 0.9983911 0.02648689
vn 0.384771 0.01447101 0.9228987
vn 0.01447104 0.3847711 0.9228985
vn 0 0 1
vn 0 0 1
vn 0.04367601 -0.8910705 -0.4517586
vn 0.9981725 -0.04932563 -0.0349093
vn 0.9980423 0.0493192 -0.03845775
vn 0.04397868 0.8899688 -0.4538957
vn -0.03678767 -0.8920209 -0.4504947
vn -0.04397474 0.8898891 -0.4540524
vn -0.9980881 0.04892151 -0.03777169
vn -0.9987187 -0.04118805 -0.02940077
g GPRuinBlockQuarter_0
f 3/3/3 2/2/2 1/1/1
f 4/4/4 3/3/3 1/1/1
f 7/7/7 6/6/6 5/5/5
f 8/8/8 7/7/7 5/5/5
f 11/11/11 10/10/10 9/9/9
f 12/12/12 11/11/11 9/9/9
f 15/15/15 14/14/14 13/13/13
f 16/16/16 15/15/15 13/13/13
f 19/19/19 18/18/18 17/17/17
f 20/20/20 19/19/19 17/17/17
f 23/23/23 22/22/22 21/21/21
f 24/24/24 23/23/23 21/21/21
f 27/27/27 26/26/26 25/25/25
f 28/28/28 27/27/27 25/25/25
f 31/31/31 30/30/30 29/29/29
f 29/29/29 32/32/32 31/31/31
f 29/29/29 33/33/33 32/32/32
f 33/33/33 34/34/34 32/32/32
f 33/33/33 35/35/35 34/34/34
f 35/35/35 36/36/36 34/34/34
f 39/39/39 38/38/38 37/37/37
f 40/40/40 39/39/39 37/37/37
f 43/43/43 42/42/42 41/41/41
f 44/44/44 43/43/43 41/41/41
f 47/47/47 46/46/46 45/45/45
f 48/48/48 47/47/47 45/45/45
f 51/51/51 50/50/50 49/49/49
f 52/52/52 51/51/51 49/49/49
f 55/55/55 54/54/54 53/53/53
f 56/56/56 55/55/55 53/53/53
f 59/59/59 58/58/58 57/57/57
f 60/60/60 59/59/59 57/57/57
f 59/59/59 60/60/60 61/61/61
f 60/60/60 62/62/62 61/61/61
f 63/63/63 61/61/61 62/62/62
f 64/64/64 63/63/63 62/62/62
f 67/67/67 66/66/66 65/65/65
f 66/66/66 68/68/68 65/65/65
f 69/69/69 65/65/65 68/68/68
f 70/70/70 69/69/69 68/68/68
f 69/69/69 70/70/70 71/71/71
f 70/70/70 72/72/72 71/71/71
f 75/75/75 74/74/74 73/73/73
f 74/74/74 76/76/76 73/73/73
f 73/73/73 76/76/76 77/77/77
f 76/76/76 78/78/78 77/77/77
f 77/77/77 78/78/78 79/79/79
f 78/78/78 80/80/80 79/79/79
f 83/83/83 82/82/82 81/81/81
f 82/82/82 84/84/84 81/81/81
f 81/81/81 84/84/84 85/85/85
f 84/84/84 86/86/86 85/85/85
f 85/85/85 86/86/86 87/87/87
f 86/86/86 88/88/88 87/87/87
f 91/91/91 90/90/90 89/89/89
f 89/89/89 92/92/92 91/91/91
f 89/89/89 93/93/93 92/92/92
f 93/93/93 94/94/94 92/92/92
f 93/93/93 95/95/95 94/94/94
f 93/93/93 96/96/96 95/95/95
