g GPRuinBlockFull
v -0.9617094 0.9053693 1
v -0.8017884 0.7454483 1
v -0.8017884 -0.7681639 1
v -0.9617094 -0.9280848 1
v 0.9581326 -0.9202946 1
v 0.7982116 -0.7603737 1
v 0.7982116 0.7454483 1
v 0.9581326 0.9053693 1
v -0.9546994 0.9925373 -2.012064E-10
v 0.9511226 0.9925373 -2.012064E-10
v 0.9511226 0.9925373 0.959921
v -0.9546994 0.9925373 0.959921
v 0.9511226 -1.007463 -2.012064E-10
v -0.9624895 -1.007463 -2.012064E-10
v -0.9624895 -1.007463 0.959921
v 0.9511226 -1.007463 0.959921
v 0.9110436 0.9524583 1
v 0.7511227 0.7925373 1
v -0.7546994 0.7925373 1
v -0.9146204 0.9524583 1
v -0.9224105 -0.9673836 1
v -0.7624895 -0.8074627 1
v 0.7511227 -0.8074627 1
v 0.9110436 -0.9673836 1
v 0.9110436 -0.9673836 1
v 0.9511226 -1.007463 0.959921
v -0.9624895 -1.007463 0.959921
v -0.9224105 -0.9673836 1
v 0.7511227 0.7925373 1
v 0.7982116 0.7454483 1
v 0.7982116 -0.7603737 1
v 0.7511227 -0.8074627 1
v -0.7546994 0.7925373 1
v -0.7624895 -0.8074627 1
v -0.8017884 0.7454483 1
v -0.8017884 -0.7681639 1
v 0.9982116 0.9454483 -2.012064E-10
v 0.9982116 -0.9603736 -2.012064E-10
v 0.9982116 -0.9603736 0.959921
v 0.9982116 0.9454483 0.959921
v -0.9146204 0.9524583 1
v -0.9546994 0.9925373 0.959921
v 0.9511226 0.9925373 0.959921
v 0.9110436 0.9524583 1
v 0.9581326 0.9053693 1
v 0.9982116 0.9454483 0.959921
v 0.9982116 -0.9603736 0.959921
v 0.9581326 -0.9202946 1
v -0.9617094 -0.9280848 1
v -1.001788 -0.9681638 0.959921
v -1.001788 0.9454483 0.959921
v -0.9617094 0.9053693 1
v -1.001788 -0.9681638 -2.012064E-10
v -1.001788 0.9454483 -2.012064E-10
v -1.001788 0.9454483 0.959921
v -1.001788 -0.9681638 0.959921
v 0.9982116 -0.9603736 -2.012064E-10
v 0.9511226 -1.007463 -2.012064E-10
v 0.9511226 -1.007463 0.959921
v 0.9982116 -0.9603736 0.959921
v 0.9110436 -0.9673836 1
v 0.9581326 -0.9202946 1
v 0.7511227 -0.8074627 1
v 0.7982116 -0.7603737 1
v -1.001788 -0.9681638 0.959921
v -0.9624895 -1.007463 -2.012064E-10
v -1.001788 -0.9681638 -2.012064E-10
v -0.9624895 -1.007463 0.959921
v -0.9617094 -0.9280848 1
v -0.9224105 -0.9673836 1
v -0.8017884 -0.7681639 1
v -0.7624895 -0.8074627 1
v -0.9546994 0.9925373 0.959921
v -1.001788 0.9454483 -2.012064E-10
v -0.9546994 0.9925373 -2.012064E-10
v -1.001788 0.9454483 0.959921
v -0.9146204 0.9524583 1
v -0.9617094 0.9053693 1
v -0.7546994 0.7925373 1
v -0.8017884 0.7454483 1
v 0.9982116 0.9454483 0.959921
v 0.9511226 0.9925373 -2.012064E-10
v 0.9982116 0.9454483 -2.012064E-10
v 0.9511226 0.9925373 0.959921
v 0.9581326 0.9053693 1
v 0.9110436 0.9524583 1
v 0.7982116 0.7454483 1
v 0.7511227 0.7925373 1
v 0.9511226 -1.007463 -2.012064E-10
v 0.9982116 -0.9603736 -2.012064E-10
v 0.9982116 0.9454483 -2.012064E-10
v 0.9511226 0.9925373 -2.012064E-10
v -0.9624895 -1.007463 -2.012064E-10
v -0.9546994 0.9925373 -2.012064E-10
v -1.001788 0.9454483 -2.012064E-10
v -1.001788 -0.9681638 -2.012064E-10
vt 1.425832 0.7380008
vt 1.416286 0.5295631
vt -0.4257662 0.5295631
vt -0.4337343 0.7380008
vt 1.425832 0.7380008
vt 1.416286 0.5295631
vt -0.4162856 0.5295631
vt -0.4258332 0.7380008
vt 1.500904 0.05116719
vt -0.5116922 0.05116671
vt -0.5116922 0.5580171
vt 1.500903 0.5580173
vt 1.50913 0.05125414
vt -0.5116923 0.05125414
vt -0.5116922 0.5581045
vt 1.50913 0.5581043
vt 1.425832 0.7380008
vt 1.416286 0.5295631
vt -0.4162856 0.5295631
vt -0.4258333 0.7380008
vt 1.433733 0.7380008
vt 1.425766 0.5295631
vt -0.4162856 0.5295631
vt -0.4258333 0.7380008
vt -0.5295782 0.7853002
vt -0.5315444 0.843606
vt 1.382068 0.8436064
vt 1.380427 0.7853004
vt 0.9705027 0.4999999
vt 0.9999292 0.4852867
vt 0.9999292 0.01478392
vt 0.9705028 7.070068E-05
vt 0.02949716 0.5
vt 0.02462907 7.070068E-05
vt 7.070178E-05 0.4852867
vt 7.073702E-05 0.0123499
vt 1.500903 0.05107982
vt -0.5116923 0.05107982
vt -0.5116922 0.5579302
vt 1.500903 0.5579299
vt -0.5295782 0.7853002
vt -0.5315444 0.843606
vt 1.374278 0.8436064
vt 1.372312 0.7853004
vt -0.5295782 0.7853002
vt -0.5315442 0.843606
vt 1.374278 0.8436064
vt 1.372312 0.7853004
vt -0.5376936 0.7853002
vt -0.5393345 0.843606
vt 1.374278 0.8436064
vt 1.372312 0.7853004
vt 1.50948 0.05134162
vt -0.5113423 0.05099252
vt -0.5116926 0.5578429
vt 1.50913 0.5581918
vt -1.053833 0.5844993
vt -1.053833 0.6962895
vt 0.4749204 0.6962886
vt 0.4749205 0.5844989
vt 0.5854757 0.6962884
vt 0.5854757 0.5844989
vt 0.9456579 0.6962884
vt 0.9456577 0.5844988
vt 0.4748985 0.6965258
vt -1.053833 0.584931
vt -1.053833 0.6965239
vt 0.4748985 0.5849287
vt 0.585456 0.6965258
vt 0.5854561 0.5849288
vt 0.9456456 0.6965258
vt 0.9456455 0.5849288
vt 0.4749185 0.6953657
vt -1.053833 0.5835757
vt -1.053833 0.6953653
vt 0.4749185 0.5835756
vt 0.5854743 0.6953658
vt 0.5854743 0.5835756
vt 0.9456579 0.6953657
vt 0.9456579 0.5835756
vt 0.4749181 0.6951193
vt -1.053833 0.5833308
vt -1.053833 0.6951203
vt 0.474918 0.5833292
vt 0.5854737 0.6951194
vt 0.5854738 0.5833292
vt 0.9456577 0.6951196
vt 0.9456577 0.5833295
vt 0.9763882 0.5
vt 0.9999293 0.4882294
vt 0.9999293 0.0118413
vt 0.9763882 7.070068E-05
vt 0.01971737 0.5
vt 0.02361192 7.070068E-05
vt 7.075888E-05 0.01184131
vt 7.070186E-05 0.4901767
vn -0.3823005 0.006781174 0.9240131
vn 0 0 1
vn 0 0 1
vn -0.3853309 -0.005720996 0.9227607
vn 0.3823094 -0.006809148 0.9240093
vn 0 0 1
vn 0 0 1
vn 0.3823095 0.006809146 0.9240093
vn -0.01678031 0.6959251 -0.7179183
vn 0.01678358 0.6960608 -0.7177866
vn 0.02448457 0.9993722 0.02560925
vn -0.02448457 0.9993722 0.02560925
vn 0.01673813 -0.6969458 -0.7169285
vn -0.01404128 -0.6977655 -0.7161887
vn -0.02043723 -0.9994687 0.02538735
vn 0.02438731 -0.9993747 0.02560588
vn 0.006809158 0.3823095 0.9240093
vn 0 0 1
vn 0 0 1
vn -0.006809158 0.3823095 0.9240093
vn -0.005720985 -0.3853311 0.9227607
vn 0 0 1
vn 0 0 1
vn 0.006781179 -0.3823006 0.9240131
vn 0.006781179 -0.3823006 0.9240131
vn 0.02438731 -0.9993747 0.02560588
vn -0.02043723 -0.9994687 0.02538735
vn -0.005720985 -0.3853311 0.9227607
vn 0 0 1
vn 0 0 1
vn 0 0 1
vn 0 0 1
vn 0 0 1
vn 0 0 1
vn 0 0 1
vn 0 0 1
vn 0.9990017 0.02408813 -0.03762268
vn 0.9990661 -0.02408968 -0.03587064
vn 0.9993722 -0.02448454 0.02560923
vn 0.9993722 0.02448455 0.02560924
vn -0.006809158 0.3823095 0.9240093
vn -0.02448457 0.9993722 0.02560925
vn 0.02448457 0.9993722 0.02560925
vn 0.006809158 0.3823095 0.9240093
vn 0.3823095 0.006809146 0.9240093
vn 0.9993722 0.02448455 0.02560924
vn 0.9993722 -0.02448454 0.02560923
vn 0.3823094 -0.006809148 0.9240093
vn -0.3853309 -0.005720996 0.9227607
vn -0.9994687 -0.02043726 0.02538735
vn -0.9993747 0.02438731 0.02560588
vn -0.3823005 0.006781174 0.9240131
vn -0.9993456 -0.02011007 -0.03006721
vn -0.9990168 0.02399278 -0.03728257
vn -0.9993747 0.02438731 0.02560588
vn -0.9994687 -0.02043726 0.02538735
vn 0.9990661 -0.02408968 -0.03587064
vn 0.01673813 -0.6969458 -0.7169285
vn 0.02438731 -0.9993747 0.02560588
vn 0.9993722 -0.02448454 0.02560923
vn 0.006781179 -0.3823006 0.9240131
vn 0.3823094 -0.006809148 0.9240093
vn 0 0 1
vn 0 0 1
vn -0.9994687 -0.02043726 0.02538735
vn -0.01404128 -0.6977655 -0.7161887
vn -0.9993456 -0.02011007 -0.03006721
vn -0.02043723 -0.9994687 0.02538735
vn -0.3853309 -0.005720996 0.9227607
vn -0.005720985 -0.3853311 0.9227607
vn 0 0 1
vn 0 0 1
vn -0.02448457 0.9993722 0.02560925
vn -0.9990168 0.02399278 -0.03728257
vn -0.01678031 0.6959251 -0.7179183
vn -0.9993747 0.02438731 0.02560588
vn -0.006809158 0.3823095 0.9240093
vn -0.3823005 0.006781174 0.9240131
vn 0 0 1
vn 0 0 1
vn 0.9993722 0.02448455 0.02560924
vn 0.01678358 0.6960608 -0.7177866
vn 0.9990017 0.02408813 -0.03762268
vn 0.02448457 0.9993722 0.02560925
vn 0.3823095 0.006809146 0.9240093
vn 0.006809158 0.3823095 0.9240093
vn 0 0 1
vn 0 0 1
vn 0.01673813 -0.6969458 -0.7169285
vn 0.9990661 -0.02408968 -0.03587064
vn 0.9990017 0.02408813 -0.03762268
vn 0.01678358 0.6960608 -0.7177866
vn -0.01404128 -0.6977655 -0.7161887
vn -0.01678031 0.6959251 -0.7179183
vn -0.9990168 0.02399278 -0.03728257
vn -0.9993456 -0.02011007 -0.03006721
g GPRuinBlockFull_0
f 3/3/3 2/2/2 1/1/1
f 4/4/4 3/3/3 1/1/1
f 7/7/7 6/6/6 5/5/5
f 8/8/8 7/7/7 5/5/5
f 11/11/11 10/10/10 9/9/9
f 12/12/12 11/11/11 9/9/9
f 15/15/15 14/14/14 13/13/13
f 16/16/16 15/15/15 13/13/13
f 19/19/19 18/18/18 17/17/17
f 20/20/20 19/19/19 17/17/17
f 23/23/23 22/22/22 21/21/21
f 24/24/24 23/23/23 21/21/21
f 27/27/27 26/26/26 25/25/25
f 28/28/28 27/27/27 25/25/25
f 31/31/31 30/30/30 29/29/29
f 29/29/29 32/32/32 31/31/31
f 29/29/29 33/33/33 32/32/32
f 33/33/33 34/34/34 32/32/32
f 33/33/33 35/35/35 34/34/34
f 35/35/35 36/36/36 34/34/34
f 39/39/39 38/38/38 37/37/37
f 40/40/40 39/39/39 37/37/37
f 43/43/43 42/42/42 41/41/41
f 44/44/44 43/43/43 41/41/41
f 47/47/47 46/46/46 45/45/45
f 48/48/48 47/47/47 45/45/45
f 51/51/51 50/50/50 49/49/49
f 52/52/52 51/51/51 49/49/49
f 55/55/55 54/54/54 53/53/53
f 56/56/56 55/55/55 53/53/53
f 59/59/59 58/58/58 57/57/57
f 60/60/60 59/59/59 57/57/57
f 59/59/59 60/60/60 61/61/61
f 60/60/60 62/62/62 61/61/61
f 63/63/63 61/61/61 62/62/62
f 64/64/64 63/63/63 62/62/62
f 67/67/67 66/66/66 65/65/65
f 66/66/66 68/68/68 65/65/65
f 69/69/69 65/65/65 68/68/68
f 70/70/70 69/69/69 68/68/68
f 69/69/69 70/70/70 71/71/71
f 70/70/70 72/72/72 71/71/71
f 75/75/75 74/74/74 73/73/73
f 74/74/74 76/76/76 73/73/73
f 73/73/73 76/76/76 77/77/77
f 76/76/76 78/78/78 77/77/77
f 77/77/77 78/78/78 79/79/79
f 78/78/78 80/80/80 79/79/79
f 83/83/83 82/82/82 81/81/81
f 82/82/82 84/84/84 81/81/81
f 81/81/81 84/84/84 85/85/85
f 84/84/84 86/86/86 85/85/85
f 85/85/85 86/86/86 87/87/87
f 86/86/86 88/88/88 87/87/87
f 91/91/91 90/90/90 89/89/89
f 89/89/89 92/92/92 91/91/91
f 89/89/89 93/93/93 92/92/92
f 93/93/93 94/94/94 92/92/92
f 93/93/93 95/95/95 94/94/94
f 93/93/93 96/96/96 95/95/95
