g spmGPFlower_LOD1
v 0.03273187 1.439454 0.01322771
v -0.06358707 1.417351 -0.06236086
v -0.08689451 1.694075 -0.07951958
v 0.007401765 1.687197 0.07344553
v -0.1879647 1.416328 -0.05900836
v -0.2496065 1.66014 -0.01072164
v -0.06358707 1.417351 -0.06236086
v -0.08689451 1.694075 -0.07951958
v -0.04208282 1.571685 -0.1837127
v -0.02972014 1.047587 -0.02573457
v 0.01901221 -0.1379241 0.01488491
v -0.03557595 1.046377 -0.03585393
v 0.008666378 -0.1381101 -0.002908097
v -0.04143969 1.046691 -0.02567178
v -0.001570634 -0.1380144 0.01494861
v -0.02972014 1.047587 -0.02573457
v 0.01901221 -0.1379241 0.01488491
v -0.06339139 1.440912 -0.05496733
v -0.06722821 1.440104 -0.06159887
v -0.07106656 1.440247 -0.0549207
v -0.06339139 1.440912 -0.05496733
v -0.0619631 0.01154582 -0.01760251
v -0.05740878 0.09510401 -0.03871112
v 0.07205746 0.01362182 0.02076359
v 0.07609119 0.09164178 0.001334109
v -0.01338651 0.2810594 -0.1128711
v 0.1181987 0.2678573 -0.06872478
v 0.0292291 0.4449507 -0.2145612
v 0.1620466 0.4352345 -0.1732953
v 0.05952714 0.5009135 -0.2991536
v 0.1873206 0.4871987 -0.2451302
v 0.1106144 0.506025 -0.3915634
v 0.2320616 0.4913906 -0.3246736
v 0.0668591 -0.009428076 -0.02518928
v 0.09943583 0.3887748 0.02903251
v -0.05373869 -0.005159354 0.03943776
v -0.02256709 0.383631 0.09089989
v 0.1166418 0.4805647 0.07613295
v -0.005388559 0.4729756 0.1376943
v 0.1479786 0.5515267 0.1453018
v 0.02543678 0.5441104 0.2058598
v 0.1906427 0.5697383 0.236808
v 0.0674431 0.561416 0.2958959
v 0.01915851 0.05279685 0.06375685
v -0.0002447545 0.1392058 0.07059869
v -0.02095866 0.05310988 -0.05345583
v -0.03890894 0.1336658 -0.04697121
v -0.1103562 0.4450074 0.06518728
v -0.1333153 0.4088215 -0.05105279
v -0.1992267 0.5275561 0.03569757
v -0.1876227 0.4622429 -0.06893418
v -0.3210062 0.5230337 -0.01166713
v -0.2491789 0.4641418 -0.09364767
v -0.385946 0.4325908 -0.05088728
v -0.2899651 0.397671 -0.1210053
v -0.01680424 0.2544144 0.04850557
v -0.03599963 0.5830967 0.04473032
v 0.006331306 0.253247 -0.05270144
v -0.01985224 0.5982773 -0.05670073
v -0.1257254 0.8235187 0.08867577
v -0.1128735 0.8500192 -0.01088349
v -0.03727643 0.2796817 0.0347978
v -0.04453281 0.3507129 0.02911602
v 0.02434743 0.2798628 -0.04200632
v 0.01758727 0.3466963 -0.04718151
v -0.06979402 0.511974 -0.003273552
v -0.008412175 0.5079468 -0.08016606
v -0.1216112 0.6638181 -0.0567495
v -0.05810342 0.6539185 -0.1313493
v -0.1863468 0.7966326 -0.1238344
v -0.1254429 0.7943674 -0.2011775
v -0.05397826 0.2727661 -0.001154887
v -0.05587503 0.5042505 -0.07381098
v 0.04321881 0.2723102 -0.01049122
v 0.04103614 0.5071681 -0.08540314
v -0.06722669 0.579637 -0.1184563
v 0.03005145 0.5799043 -0.1269178
v -0.06524367 0.644089 -0.1795446
v 0.03192201 0.6353532 -0.1836868
v -0.06764182 0.6471621 -0.2657277
v 0.02963174 0.6386508 -0.2655244
v -0.07025062 0.5836512 -0.3233718
v 0.02722839 0.578194 -0.321721
v -0.04271041 0.4994782 -0.007793432
v -0.04727661 0.5406518 -0.02430353
v 0.01542867 0.5016727 -0.01739677
v 0.01026963 0.5469484 -0.0355278
v -0.06274735 0.6516377 -0.058147
v -0.004748174 0.6472889 -0.06786189
v -0.05889316 0.7040554 -0.08559974
v -0.001221335 0.693908 -0.09253911
v -0.05712927 0.7357424 -0.1355266
v 0.0002392671 0.7221251 -0.1347548
v -0.05227107 0.7250083 -0.1940774
v 0.004275126 0.7127473 -0.1827029
v -0.05013076 0.6811195 -0.2312755
v 0.005892698 0.6709638 -0.2159325
v -0.007992163 0.5134085 0.01785122
v -0.06260379 0.642744 0.04278355
v -0.02596988 0.5129028 -0.03462284
v -0.08534096 0.653227 -0.006715048
v -0.07948819 0.6848213 0.06278576
v -0.1046238 0.7007236 0.0159636
v -0.1071119 0.7149584 0.09131961
v -0.1337398 0.7345037 0.04675601
v -0.1461976 0.7185517 0.1171782
v -0.1797104 0.7361945 0.07664897
v -0.1794315 0.6920966 0.1413117
v -0.2178884 0.7069736 0.1042078
v 0.01439083 0.506011 -0.008055865
v 0.01509614 0.5507218 -0.00783397
v -0.04104833 0.5067529 -0.01030681
v -0.04034242 0.5516234 -0.01004347
v 0.0347597 0.7579023 -0.01665123
v -0.01899971 0.7713525 -0.01950812
v 0.04927336 0.8007684 -0.02903159
v 2.316583E-05 0.8255578 -0.03527908
v 0.07340286 0.8222532 -0.06301222
v 0.02881245 0.8532398 -0.07444374
vt 0.9900001 0.004999995
vt 0.5 0.004999995
vt 0.5 0.495
vt 0.9900001 0.495
vt 0.01 0.004999995
vt 0.01 0.495
vt 0.988093 0.004999995
vt 0.419047 0.495
vt 0.988093 0.495
vt -0.388332 1.711961
vt -0.388332 0.212
vt -0.05499901 1.711961
vt -0.05499901 0.212
vt 0.278335 1.711961
vt 0.278335 0.212
vt 0.611668 1.711961
vt 0.611668 0.212
vt -0.388332 2.212062
vt -0.05499901 2.212016
vt 0.278335 2.212016
vt 0.611668 2.212062
vt 0 0.5
vt 0 0.561232
vt 0.515625 0.5
vt 0.515625 0.561232
vt 0 0.708054
vt 0.515625 0.708054
vt 0 0.854973
vt 0.515625 0.854973
vt 0 0.927658
vt 0.515625 0.927658
vt 0 1
vt 0.515625 1
vt 0.515625 0.5
vt 0.515625 0.7819839
vt 0 0.5
vt 0 0.7819839
vt 0.515625 0.855033
vt 0 0.855033
vt 0.515625 0.928173
vt 0 0.928173
vt 0.515625 1
vt 0 1
vt 0 0.5
vt 0 0.561722
vt 0.515625 0.5
vt 0.515625 0.561722
vt 0 0.783967
vt 0.515625 0.783967
vt 0 0.856999
vt 0.515625 0.856999
vt 0 0.9278581
vt 0.515625 0.9278581
vt 0 1
vt 0.515625 1
vt 0.515625 0.5
vt 0.515625 0.780005
vt 0 0.5
vt 0 0.780005
vt 0.515625 1
vt 0 1
vt 0 0.5
vt 0 0.560995
vt 0.515625 0.5
vt 0.515625 0.560995
vt 0 0.707424
vt 0.515625 0.707424
vt 0 0.853607
vt 0.515625 0.853607
vt 0 1
vt 0.515625 1
vt 0.515625 0.5
vt 0.515625 0.709793
vt 0 0.5
vt 0 0.709793
vt 0.515625 0.783808
vt 0 0.783808
vt 0.515625 0.855836
vt 0 0.855836
vt 0.515625 0.92788
vt 0 0.92788
vt 0.515625 1
vt 0 1
vt 0 0.5
vt 0 0.561602
vt 0.515625 0.5
vt 0.515625 0.561602
vt 0 0.709334
vt 0.515625 0.709334
vt 0 0.783123
vt 0.515625 0.783123
vt 0 0.8554561
vt 0.515625 0.8554561
vt 0 0.9269969
vt 0.515625 0.9269969
vt 0 1
vt 0.515625 1
vt 0.515625 0.5
vt 0.515625 0.709022
vt 0 0.5
vt 0 0.709022
vt 0.515625 0.7829359
vt 0 0.7829359
vt 0.515625 0.8557521
vt 0 0.8557521
vt 0.515625 0.9270251
vt 0 0.9270251
vt 0.515625 1
vt 0 1
vt 0 0.5
vt 0 0.561438
vt 0.515625 0.5
vt 0.515625 0.561438
vt 0 0.85648
vt 0.515625 0.85648
vt 0 0.9295051
vt 0.515625 0.9295051
vt 0 1
vt 0.515625 1
vn 0.874894 0.05270901 0.481438
vn 0.612808 -0.6795251 -0.403376
vn -0.032277 0.978045 -0.20588
vn 0.403987 0.726115 0.556374
vn -0.9945521 -0.061441 -0.08421601
vn -0.7432221 0.6458271 0.174723
vn 0.612808 -0.6795251 -0.403376
vn -0.032277 0.978045 -0.20588
vn 0.258376 0.441639 -0.859184
vn 0.865509 0.06713301 0.496374
vn 0.866469 0.052628 0.496449
vn -0.002491 -0.037282 -0.9993021
vn -0.002969 -0.027914 -0.9996061
vn -0.864597 -0.015838 0.502215
vn -0.864369 -0.011852 0.502718
vn 0.865509 0.06713301 0.496374
vn 0.866469 0.052628 0.496449
vn 0.862712 0.11053 0.493469
vn -0.000395 -0.06528001 -0.9978671
vn -0.8637511 -0.027628 0.5031621
vn 0.862712 0.11053 0.493469
vn -0.488368 0.086912 -0.868299
vn -0.472633 0.108845 -0.8745121
vn 0.870708 0.114787 -0.478217
vn 0.880314 0.012806 -0.474219
vn -0.442325 0.066946 -0.894353
vn 0.89403 -0.045727 -0.445667
vn -0.47319 -0.056012 -0.879178
vn 0.876533 -0.131209 -0.463114
vn -0.459327 -0.33398 -0.823089
vn 0.8411241 -0.461499 -0.282009
vn -0.426741 -0.433291 -0.7938211
vn 0.8045501 -0.582755 -0.114439
vn 0.95074 0.158681 0.266298
vn 0.9377861 0.174534 0.30016
vn -0.292328 0.173875 0.940379
vn -0.328851 0.16869 0.929194
vn 0.950753 -0.036372 0.307808
vn -0.309948 -0.115666 0.9436921
vn 0.927297 -0.284574 0.243182
vn -0.338374 -0.359434 0.869661
vn 0.8976101 -0.403919 0.176483
vn -0.376108 -0.493004 0.784532
vn -0.431476 0.110353 0.895349
vn -0.440009 0.176429 0.880491
vn -0.889187 0.115456 -0.442737
vn -0.889228 0.052898 -0.454396
vn -0.565705 0.18949 0.802541
vn -0.818312 -0.038543 -0.573481
vn -0.6849729 0.055623 0.726442
vn -0.5775051 -0.6481441 -0.496384
vn -0.6917641 -0.282043 0.664767
vn 0.160382 -0.9576261 -0.239226
vn -0.605572 -0.460123 0.649284
vn 0.511085 -0.850282 -0.12575
vn -0.811459 0.230163 0.537177
vn -0.761528 0.165746 0.62658
vn -0.49333 0.22348 -0.840644
vn -0.563797 0.306581 -0.7669039
vn -0.75241 0.060206 0.655938
vn -0.589886 0.381752 -0.711547
vn -0.975144 0.183213 0.124603
vn -0.971282 0.210609 0.110706
vn -0.08968501 0.187848 -0.9780951
vn -0.07923602 0.152432 -0.985133
vn -0.976147 0.183178 0.116548
vn -0.09946501 0.099862 -0.9900171
vn -0.9907581 0.113553 0.07418901
vn -0.07175801 0.025054 -0.9971071
vn -0.984472 0.128399 0.119701
vn -0.118734 0.01831 -0.992757
vn -0.770663 0.07773101 -0.632485
vn -0.787407 0.06424101 -0.613077
vn 0.636539 0.04531 -0.769912
vn 0.616282 0.066116 -0.784745
vn -0.765002 -0.08997901 -0.6377121
vn 0.643949 -0.090625 -0.759682
vn -0.762428 -0.306192 -0.570044
vn 0.6438141 -0.449048 -0.6195641
vn -0.763683 -0.619993 -0.17999
vn 0.64523 -0.7423739 -0.180441
vn -0.746529 -0.661785 0.068812
vn 0.665357 -0.741695 0.084785
vn -0.8122479 -0.030275 -0.582526
vn -0.834618 0.03029 -0.549996
vn 0.5816479 0.033321 -0.812758
vn 0.549781 0.119747 -0.826681
vn -0.8071651 0.096035 -0.582462
vn 0.589193 0.093832 -0.802525
vn -0.794848 0.006578 -0.606773
vn 0.589726 -0.227464 -0.7749079
vn -0.7929929 -0.308587 -0.525295
vn 0.584663 -0.627997 -0.513604
vn -0.801726 -0.5381011 -0.26016
vn 0.547948 -0.8355011 0.041121
vn -0.817285 -0.566017 -0.108023
vn 0.521367 -0.805935 0.280436
vn -0.437982 -0.057135 0.8971661
vn -0.348107 -0.053484 0.935928
vn -0.898733 0.001942 -0.438491
vn -0.936698 0.056768 -0.345504
vn -0.309869 -0.315024 0.897074
vn -0.9507601 0.09941401 -0.293552
vn -0.23814 -0.612281 0.753924
vn -0.912275 -0.125204 -0.389972
vn 0.08992501 -0.84633 0.525014
vn -0.7599069 -0.399036 -0.51314
vn 0.2956311 -0.865894 0.403522
vn -0.691772 -0.485319 -0.5347111
vn 0.683436 0.256587 0.683431
vn 0.6845461 0.293806 0.6671391
vn -0.729398 0.27832 0.624913
vn -0.7223849 0.396392 0.566598
vn 0.7709869 0.301991 0.560697
vn -0.624338 0.528458 0.575268
vn 0.8947001 0.282025 0.346373
vn -0.365642 0.907971 0.20468
vn 0.9670491 0.188503 0.171119
vn -0.174738 0.980119 -0.093984
g spmGPFlower_LOD1_0
f 2/2/2 3/3/3 1/1/1
f 3/3/3 4/4/4 1/1/1
f 2/2/2 5/5/5 3/3/3
f 5/5/5 6/6/6 3/3/3
f 8/8/8 9/9/9 7/7/7
g spmGPFlower_LOD1_1
f 11/11/11 12/12/12 10/10/10
f 12/12/12 11/11/11 13/13/13
f 13/13/13 14/14/14 12/12/12
f 14/14/14 13/13/13 15/15/15
f 15/15/15 16/16/16 14/14/14
f 16/16/16 15/15/15 17/17/17
f 10/10/10 19/19/19 18/18/18
f 19/19/19 10/10/10 12/12/12
f 12/12/12 20/20/20 19/19/19
f 20/20/20 12/12/12 14/14/14
f 14/14/14 21/21/21 20/20/20
f 21/21/21 14/14/14 16/16/16
g spmGPFlower_LOD1_2
f 23/23/23 24/24/24 22/22/22
f 24/24/24 23/23/23 25/25/25
f 26/26/26 25/25/25 23/23/23
f 25/25/25 26/26/26 27/27/27
f 28/28/28 27/27/27 26/26/26
f 27/27/27 28/28/28 29/29/29
f 30/30/30 29/29/29 28/28/28
f 29/29/29 30/30/30 31/31/31
f 32/32/32 31/31/31 30/30/30
f 31/31/31 32/32/32 33/33/33
f 35/35/35 36/36/36 34/34/34
f 36/36/36 35/35/35 37/37/37
f 38/38/38 37/37/37 35/35/35
f 37/37/37 38/38/38 39/39/39
f 40/40/40 39/39/39 38/38/38
f 39/39/39 40/40/40 41/41/41
f 42/42/42 41/41/41 40/40/40
f 41/41/41 42/42/42 43/43/43
f 45/45/45 46/46/46 44/44/44
f 46/46/46 45/45/45 47/47/47
f 48/48/48 47/47/47 45/45/45
f 47/47/47 48/48/48 49/49/49
f 50/50/50 49/49/49 48/48/48
f 49/49/49 50/50/50 51/51/51
f 52/52/52 51/51/51 50/50/50
f 51/51/51 52/52/52 53/53/53
f 54/54/54 53/53/53 52/52/52
f 53/53/53 54/54/54 55/55/55
f 57/57/57 58/58/58 56/56/56
f 58/58/58 57/57/57 59/59/59
f 60/60/60 59/59/59 57/57/57
f 59/59/59 60/60/60 61/61/61
f 63/63/63 64/64/64 62/62/62
f 64/64/64 63/63/63 65/65/65
f 66/66/66 65/65/65 63/63/63
f 65/65/65 66/66/66 67/67/67
f 68/68/68 67/67/67 66/66/66
f 67/67/67 68/68/68 69/69/69
f 70/70/70 69/69/69 68/68/68
f 69/69/69 70/70/70 71/71/71
f 73/73/73 74/74/74 72/72/72
f 74/74/74 73/73/73 75/75/75
f 76/76/76 75/75/75 73/73/73
f 75/75/75 76/76/76 77/77/77
f 78/78/78 77/77/77 76/76/76
f 77/77/77 78/78/78 79/79/79
f 80/80/80 79/79/79 78/78/78
f 79/79/79 80/80/80 81/81/81
f 82/82/82 81/81/81 80/80/80
f 81/81/81 82/82/82 83/83/83
f 85/85/85 86/86/86 84/84/84
f 86/86/86 85/85/85 87/87/87
f 88/88/88 87/87/87 85/85/85
f 87/87/87 88/88/88 89/89/89
f 90/90/90 89/89/89 88/88/88
f 89/89/89 90/90/90 91/91/91
f 92/92/92 91/91/91 90/90/90
f 91/91/91 92/92/92 93/93/93
f 94/94/94 93/93/93 92/92/92
f 93/93/93 94/94/94 95/95/95
f 96/96/96 95/95/95 94/94/94
f 95/95/95 96/96/96 97/97/97
f 99/99/99 100/100/100 98/98/98
f 100/100/100 99/99/99 101/101/101
f 102/102/102 101/101/101 99/99/99
f 101/101/101 102/102/102 103/103/103
f 104/104/104 103/103/103 102/102/102
f 103/103/103 104/104/104 105/105/105
f 106/106/106 105/105/105 104/104/104
f 105/105/105 106/106/106 107/107/107
f 108/108/108 107/107/107 106/106/106
f 107/107/107 108/108/108 109/109/109
f 111/111/111 112/112/112 110/110/110
f 112/112/112 111/111/111 113/113/113
f 114/114/114 113/113/113 111/111/111
f 113/113/113 114/114/114 115/115/115
f 116/116/116 115/115/115 114/114/114
f 115/115/115 116/116/116 117/117/117
f 118/118/118 117/117/117 116/116/116
f 117/117/117 118/118/118 119/119/119
