g spmGPFlower_LOD2
v 0.03273187 1.439454 0.01322771
v -0.06358707 1.417351 -0.06236086
v -0.08689451 1.694075 -0.07951958
v 0.007401765 1.687197 0.07344553
v -0.1879647 1.416328 -0.05900836
v -0.2496065 1.66014 -0.01072164
v -0.06358707 1.417351 -0.06236086
v -0.08689451 1.694075 -0.07951958
v -0.04208282 1.571685 -0.1837127
v -0.04048628 1.178184 -0.035547
v 0.01901221 -0.1379046 0.01488491
v -0.04564319 1.17713 -0.04445752
v 0.008666378 -0.1381061 -0.002908097
v -0.05080285 1.177367 -0.03548969
v -0.001570634 -0.1380378 0.01494861
v -0.04048628 1.178184 -0.035547
v 0.01901221 -0.1379046 0.01488491
v -0.06338774 1.44087 -0.05496428
v -0.06722669 1.440084 -0.06159765
v -0.07106626 1.440243 -0.05492039
v -0.06338774 1.44087 -0.05496428
v -0.06544117 0.01182228 -0.01867205
v -0.02136526 0.2640406 -0.1054029
v 0.07553554 0.01334537 0.02183313
v 0.1171505 0.2507809 -0.05898216
v 0.04172682 0.4850222 -0.2652787
v 0.1775515 0.4703024 -0.211872
v 0.1059778 0.5063313 -0.3905104
v 0.2366986 0.4910843 -0.3257267
v 0.07009486 -0.008378956 -0.02675839
v 0.104714 0.4083686 0.03442472
v -0.05697444 -0.006208169 0.04100688
v -0.02343759 0.4035006 0.09997593
v 0.136665 0.5271912 0.1137812
v 0.007848295 0.5188421 0.1776564
v 0.1934837 0.5698852 0.2344976
v 0.06460206 0.5612691 0.2982063
v 0.02000037 0.05369265 0.06687709
v -0.05276302 0.3242252 0.07197121
v -0.02180052 0.05221407 -0.05657637
v -0.0897953 0.3056287 -0.05161301
v -0.1256139 0.4668829 0.06464931
v -0.1424227 0.4203722 -0.05595123
v -0.2751878 0.5413297 0.009142477
v -0.2229697 0.4691664 -0.08602066
v -0.3838277 0.4396789 -0.04669414
v -0.2920834 0.3905829 -0.1251984
v -0.01734099 0.2534415 0.05116099
v -0.04261653 0.5996108 0.0492886
v 0.006868058 0.2542199 -0.05535686
v -0.02537033 0.6154768 -0.05740512
v -0.1262793 0.8234639 0.0914074
v -0.1123197 0.8500741 -0.01361511
v -0.03893576 0.2802212 0.03675492
v -0.09717725 0.6070772 -0.02848356
v 0.02600675 0.2793236 -0.04396344
v -0.03158216 0.5994642 -0.1083149
v -0.1885338 0.7978908 -0.122351
v -0.123256 0.7931088 -0.2026612
v -0.05652059 0.2735065 -0.001096061
v -0.05745298 0.4897777 -0.06696486
v 0.04576115 0.2715698 -0.01055004
v 0.04466265 0.490903 -0.07818212
v -0.07017136 0.5951833 -0.128198
v 0.03224936 0.5938398 -0.1361276
v -0.06778508 0.6539944 -0.2320448
v 0.03440918 0.6434758 -0.232663
v -0.0727515 0.5845424 -0.3225278
v 0.02972928 0.5773025 -0.3225647
v -0.04413108 0.4986293 -0.007223151
v -0.06025195 0.7133268 -0.09403384
v 0.01684934 0.5025216 -0.01796705
v 0.0003578361 0.7012891 -0.09958061
v -0.05576438 0.7358034 -0.1719807
v 0.004116021 0.7212909 -0.1647051
v -0.05160447 0.6819641 -0.2312082
v 0.007366713 0.6701193 -0.2159999
v -0.007617564 0.5136454 0.01924812
v -0.05883219 0.6343705 0.04081425
v -0.02634448 0.5126657 -0.03601944
v -0.08196651 0.6435764 -0.01197041
v -0.08348259 0.6923417 0.06976111
v -0.1093482 0.7091157 0.02020519
v -0.1293077 0.7220761 0.1071607
v -0.1627397 0.7416522 0.06351148
v -0.1792212 0.6911216 0.142832
v -0.2180984 0.7079487 0.1026874
v 0.01583833 0.5062856 -0.007992161
v 0.04318468 0.7842453 -0.02177065
v -0.04249552 0.5064783 -0.01037021
v -0.01073871 0.8060851 -0.02665324
v 0.07563795 0.8226677 -0.06392814
v 0.02657734 0.8528253 -0.07352751
vt 0.9900001 0.004999995
vt 0.5 0.004999995
vt 0.5 0.495
vt 0.9900001 0.495
vt 0.01 0.004999995
vt 0.01 0.495
vt 0.988093 0.004999995
vt 0.419047 0.495
vt 0.988093 0.495
vt -0.388332 1.877967
vt -0.388332 0.212
vt -0.05499901 1.877967
vt -0.05499901 0.212
vt 0.278335 1.877967
vt 0.278335 0.212
vt 0.611668 1.877967
vt 0.611668 0.212
vt -0.388332 2.212
vt -0.054998 2.212
vt 0.278335 2.212
vt 0.611668 2.212
vt 0 0.5
vt 0 0.694398
vt 0.515625 0.5
vt 0.515625 0.694398
vt 0 0.899695
vt 0.515625 0.899695
vt 0 1
vt 0.515625 1
vt 0.515625 0.5
vt 0.515625 0.7981231
vt 0 0.5
vt 0 0.7981231
vt 0.515625 0.900665
vt 0 0.900665
vt 0.515625 1
vt 0 1
vt 0 0.5
vt 0 0.6975791
vt 0.515625 0.5
vt 0.515625 0.6975791
vt 0 0.801791
vt 0.515625 0.801791
vt 0 0.901682
vt 0.515625 0.901682
vt 0 1
vt 0.515625 1
vt 0.515625 0.5
vt 0.515625 0.7944651
vt 0 0.5
vt 0 0.7944651
vt 0.515625 1
vt 0 1
vt 0 0.5
vt 0 0.795436
vt 0.515625 0.5
vt 0.515625 0.795436
vt 0 1
vt 0.515625 1
vt 0.515625 0.5
vt 0.515625 0.6980661
vt 0 0.5
vt 0 0.6980661
vt 0.515625 0.802893
vt 0 0.802893
vt 0.515625 0.901881
vt 0 0.901881
vt 0.515625 1
vt 0 1
vt 0 0.5
vt 0 0.7994561
vt 0.515625 0.5
vt 0.515625 0.7994561
vt 0 0.898678
vt 0.515625 0.898678
vt 0 1
vt 0.515625 1
vt 0.515625 0.5
vt 0.515625 0.6950621
vt 0 0.5
vt 0 0.6950621
vt 0.515625 0.7985601
vt 0 0.7985601
vt 0.515625 0.8985081
vt 0 0.8985081
vt 0.515625 1
vt 0 1
vt 0 0.5
vt 0 0.902392
vt 0.515625 0.5
vt 0.515625 0.902392
vt 0 1
vt 0.515625 1
vn 0.874894 0.05270901 0.481438
vn 0.612808 -0.6795251 -0.403376
vn -0.032277 0.978045 -0.20588
vn 0.403987 0.726115 0.556374
vn -0.9945521 -0.061441 -0.08421601
vn -0.7432221 0.6458271 0.174723
vn 0.612808 -0.6795251 -0.403376
vn -0.032277 0.978045 -0.20588
vn 0.258376 0.441639 -0.859184
vn 0.865591 0.067132 0.496232
vn 0.86618 0.058178 0.496335
vn -0.002615 -0.037288 -0.9993011
vn -0.002897 -0.031694 -0.9994931
vn -0.864579 -0.015836 0.5022479
vn -0.864348 -0.013074 0.502724
vn 0.865591 0.067132 0.496232
vn 0.86618 0.058178 0.496335
vn 0.862618 0.111674 0.493376
vn -0.000407 -0.06507801 -0.9978801
vn -0.863624 -0.029371 0.50328
vn 0.862618 0.111674 0.493376
vn -0.483566 0.06926801 -0.872563
vn -0.446474 0.021719 -0.894533
vn 0.873436 -0.025262 -0.486283
vn 0.893245 -0.050249 -0.446754
vn -0.433382 -0.167557 -0.885497
vn 0.8867739 -0.256447 -0.384534
vn -0.441158 -0.397686 -0.804503
vn 0.821592 -0.539654 -0.18374
vn 0.9495201 0.154991 0.272744
vn 0.941734 0.15348 0.2993
vn -0.296914 0.163624 0.9407811
vn -0.3206351 0.140324 0.9367511
vn 0.9404451 -0.198019 0.276318
vn -0.324876 -0.284104 0.902076
vn 0.916517 -0.340769 0.209458
vn -0.349169 -0.426134 0.8345601
vn -0.432418 0.143685 0.8901511
vn -0.475947 0.180079 0.86084
vn -0.895027 0.05131 -0.44305
vn -0.869448 0.048215 -0.491666
vn -0.596187 0.152631 0.788204
vn -0.788881 -0.289504 -0.542082
vn -0.732265 -0.133607 0.667785
vn -0.136519 -0.9318621 -0.336149
vn -0.652772 -0.385701 0.652015
vn 0.372293 -0.912912 -0.167298
vn -0.81251 0.214483 0.542056
vn -0.7632329 0.165749 0.6245021
vn -0.499816 0.222325 -0.8371121
vn -0.561573 0.30698 -0.768374
vn -0.758027 0.058843 0.6495631
vn -0.5829179 0.385708 -0.715147
vn -0.985774 0.124813 0.112565
vn -0.9871681 0.129025 0.094088
vn -0.105197 0.063664 -0.9924111
vn -0.08843101 0.04912001 -0.9948711
vn -0.9905521 0.092546 0.101204
vn -0.102535 -0.008470001 -0.994693
vn -0.767357 0.08562101 -0.635478
vn -0.780391 0.06579001 -0.6218221
vn 0.640353 0.05039901 -0.766426
vn 0.625203 0.068744 -0.777429
vn -0.760154 -0.157652 -0.630327
vn 0.6497321 -0.178424 -0.738927
vn -0.7666399 -0.519825 -0.376889
vn 0.6390681 -0.675858 -0.367161
vn -0.7551261 -0.6545851 -0.036093
vn 0.6556221 -0.75347 -0.049424
vn -0.819109 -0.004862 -0.573617
vn -0.7829569 -0.05233201 -0.619871
vn 0.573818 0.007204 -0.818951
vn 0.623223 -0.103676 -0.775141
vn -0.807036 -0.479669 -0.3444
vn 0.553437 -0.817993 -0.156827
vn -0.815362 -0.557257 -0.157001
vn 0.5219829 -0.8245161 0.218419
vn -0.441083 -0.047189 0.896225
vn -0.364548 -0.063306 0.92903
vn -0.8971401 -0.005215 -0.441716
vn -0.9300291 0.074715 -0.3598101
vn -0.317593 -0.367192 0.874245
vn -0.9437361 0.032854 -0.329065
vn -0.037144 -0.7807329 0.6237611
vn -0.847479 -0.306147 -0.433652
vn 0.223963 -0.865324 0.448392
vn -0.720046 -0.456968 -0.52222
vn 0.6771441 0.243778 0.694297
vn 0.813572 0.274053 0.512831
vn -0.7264709 0.373752 0.5766699
vn -0.561701 0.5944421 0.57544
vn 0.9349261 0.236326 0.264696
vn -0.259278 0.964291 0.054021
g spmGPFlower_LOD2_0
f 2/2/2 3/3/3 1/1/1
f 3/3/3 4/4/4 1/1/1
f 2/2/2 5/5/5 3/3/3
f 5/5/5 6/6/6 3/3/3
f 8/8/8 9/9/9 7/7/7
g spmGPFlower_LOD2_1
f 11/11/11 12/12/12 10/10/10
f 12/12/12 11/11/11 13/13/13
f 13/13/13 14/14/14 12/12/12
f 14/14/14 13/13/13 15/15/15
f 15/15/15 16/16/16 14/14/14
f 16/16/16 15/15/15 17/17/17
f 10/10/10 19/19/19 18/18/18
f 19/19/19 10/10/10 12/12/12
f 12/12/12 20/20/20 19/19/19
f 20/20/20 12/12/12 14/14/14
f 14/14/14 21/21/21 20/20/20
f 21/21/21 14/14/14 16/16/16
g spmGPFlower_LOD2_2
f 23/23/23 24/24/24 22/22/22
f 24/24/24 23/23/23 25/25/25
f 26/26/26 25/25/25 23/23/23
f 25/25/25 26/26/26 27/27/27
f 28/28/28 27/27/27 26/26/26
f 27/27/27 28/28/28 29/29/29
f 31/31/31 32/32/32 30/30/30
f 32/32/32 31/31/31 33/33/33
f 34/34/34 33/33/33 31/31/31
f 33/33/33 34/34/34 35/35/35
f 36/36/36 35/35/35 34/34/34
f 35/35/35 36/36/36 37/37/37
f 39/39/39 40/40/40 38/38/38
f 40/40/40 39/39/39 41/41/41
f 42/42/42 41/41/41 39/39/39
f 41/41/41 42/42/42 43/43/43
f 44/44/44 43/43/43 42/42/42
f 43/43/43 44/44/44 45/45/45
f 46/46/46 45/45/45 44/44/44
f 45/45/45 46/46/46 47/47/47
f 49/49/49 50/50/50 48/48/48
f 50/50/50 49/49/49 51/51/51
f 52/52/52 51/51/51 49/49/49
f 51/51/51 52/52/52 53/53/53
f 55/55/55 56/56/56 54/54/54
f 56/56/56 55/55/55 57/57/57
f 58/58/58 57/57/57 55/55/55
f 57/57/57 58/58/58 59/59/59
f 61/61/61 62/62/62 60/60/60
f 62/62/62 61/61/61 63/63/63
f 64/64/64 63/63/63 61/61/61
f 63/63/63 64/64/64 65/65/65
f 66/66/66 65/65/65 64/64/64
f 65/65/65 66/66/66 67/67/67
f 68/68/68 67/67/67 66/66/66
f 67/67/67 68/68/68 69/69/69
f 71/71/71 72/72/72 70/70/70
f 72/72/72 71/71/71 73/73/73
f 74/74/74 73/73/73 71/71/71
f 73/73/73 74/74/74 75/75/75
f 76/76/76 75/75/75 74/74/74
f 75/75/75 76/76/76 77/77/77
f 79/79/79 80/80/80 78/78/78
f 80/80/80 79/79/79 81/81/81
f 82/82/82 81/81/81 79/79/79
f 81/81/81 82/82/82 83/83/83
f 84/84/84 83/83/83 82/82/82
f 83/83/83 84/84/84 85/85/85
f 86/86/86 85/85/85 84/84/84
f 85/85/85 86/86/86 87/87/87
f 89/89/89 90/90/90 88/88/88
f 90/90/90 89/89/89 91/91/91
f 92/92/92 91/91/91 89/89/89
f 91/91/91 92/92/92 93/93/93
