g WispSphereShattered_cell.001
v 0.588001 0.154557 -0.06197261
v 0.4906357 -0.01147658 0.06795096
v 0.524998 0.1546656 0.0670184
v 0.09075124 0.1659153 0.1815876
v 0.09075124 0.1551573 0.2799432
v -0.1443802 0.1527739 0.2328915
v -0.09970005 0.1644779 0.1455441
v -0.3434955 0.1546656 0.0670184
v -0.2667172 0.169148 0.006410613
v -0.4771631 0.1544352 -0.2066497
v -0.3842394 0.1723886 -0.2356473
v -0.4267982 0.173242 -0.5188751
v -0.5233088 0.1543937 -0.5235955
v -0.02400357 -0.1788063 0.006640925
v 0.09075125 -0.1608985 0.04064735
v 0.09075124 -0.03594502 0.1449668
v 0.01799863 -0.02147613 0.1449668
v 0.09075124 0.1659153 0.1815876
v -0.0454045 -0.1745497 0.006640925
v -0.0473238 -0.1791832 -0.00370422
v -0.1608338 -0.09742375 0.006640925
v -0.2032083 -0.1397982 -0.1169732
v -0.3139635 -0.07558374 -0.2355942
v -0.04367692 0.01973295 0.1449668
v -0.2378882 0.01801764 0.006731763
v -0.08484007 0.08138511 0.1449264
v -0.09970005 0.1644779 0.1455441
v -0.2667172 0.169148 0.006410613
v -0.3842394 0.1723886 -0.2356473
v -0.3464724 -0.026939 -0.2355911
v -0.3556784 -0.03075222 -0.3020072
v -0.4217858 0.1498397 -0.5224871
v -0.4267982 0.173242 -0.5188751
v 0.09075124 0.1659153 0.1815876
v 0.3258826 0.1527739 0.2328915
v 0.09075124 0.1551573 0.2799432
v 0.2812025 0.1644779 0.1455441
v 0.524998 0.1546656 0.0670184
v 0.4482197 0.169148 0.006410613
v 0.4482197 0.169148 0.006410613
v 0.4168132 0.01415613 0.006728723
v 0.5078174 0.1707914 -0.1163415
v 0.2663426 0.08138511 0.1449264
v 0.2812025 0.1644779 0.1455441
v 0.09075124 0.1659153 0.1815876
v 0.2251794 0.01973295 0.1449668
v 0.4168132 0.01415613 0.006728723
v 0.3114718 -0.06655927 0.04308236
v 0.1635039 -0.02147613 0.1449668
v 0.09075124 -0.03594502 0.1449668
v 0.2054767 -0.1228108 0.05339512
v 0.09075125 -0.1608985 0.04064735
v 0.588001 0.154557 -0.06197261
v 0.5078174 0.1707914 -0.1163415
v 0.4168132 0.01415613 0.006728723
v 0.4906357 -0.01147658 0.06795096
v 0.3580377 -0.1131254 0.1137623
v 0.3080771 0.0641415 0.2330437
v 0.4906357 -0.01147658 0.06795096
v 0.2570852 -0.01217308 0.2330437
v 0.2296983 -0.1812859 0.1262236
v 0.09075124 0.1551573 0.2799432
v 0.3258826 0.1527739 0.2328915
v 0.4906357 -0.01147658 0.06795096
v 0.524998 0.1546656 0.0670184
v 0.1807708 -0.06316487 0.2330437
v 0.09075124 -0.08107084 0.2330437
v 0.09075124 -0.2274679 0.1107305
v -0.5144385 0.1069209 -0.5200395
v -0.5233088 0.1543937 -0.5235955
v -0.4771631 0.1544352 -0.2066497
v -0.4339194 -0.06316467 -0.2067602
v -0.4474004 -0.06874861 -0.3042551
v -0.3434955 0.1546656 0.0670184
v -0.386202 -0.134579 -0.2067602
v -0.3108143 -0.01217291 0.0664307
v -0.1443802 0.1527739 0.2328915
v -0.2165939 -0.1531839 0.0664307
v -0.2668504 -0.2034404 -0.07928718
v -0.1265746 0.0641415 0.2330437
v 0.09075124 0.1551573 0.2799432
v -0.07558309 -0.2474045 0.0664307
v -0.07710622 -0.2510817 0.05827051
v -0.05867393 -0.2507679 0.0664307
v -0.07558278 -0.01217308 0.2330437
v 0.0007316842 -0.06316487 0.2330437
v 0.09075124 -0.2274679 0.1107305
v 0.09075124 -0.08107084 0.2330437
v -0.5233088 0.1543937 -0.5235955
v -0.5144385 0.1069209 -0.5200395
v -0.4217858 0.1498397 -0.5224871
v -0.4267982 0.173242 -0.5188751
v -0.3556784 -0.03075222 -0.3020072
v -0.4217858 0.1498397 -0.5224871
v -0.5144385 0.1069209 -0.5200395
v -0.4474004 -0.06874861 -0.3042551
v -0.386202 -0.134579 -0.2067602
v -0.3139635 -0.07558374 -0.2355942
v -0.2668504 -0.2034404 -0.07928718
v -0.2032083 -0.1397982 -0.1169732
v -0.07710622 -0.2510817 0.05827051
v -0.0473238 -0.1791832 -0.00370422
v -0.05867393 -0.2507679 0.0664307
v -0.02400357 -0.1788063 0.006640925
v 0.09075124 -0.2274679 0.1107305
v 0.09075125 -0.1608985 0.04064735
v 0.09075125 -0.1608985 0.04064735
v 0.09075124 -0.2274679 0.1107305
v 0.2296983 -0.1812859 0.1262236
v 0.2054767 -0.1228108 0.05339512
v 0.3580377 -0.1131254 0.1137623
v 0.3114718 -0.06655927 0.04308236
v 0.4906357 -0.01147658 0.06795096
v 0.4168132 0.01415613 0.006728723
v 0.524998 0.1546656 0.0670184
v 0.4482197 0.169148 0.006410613
v 0.5078174 0.1707914 -0.1163415
v 0.588001 0.154557 -0.06197261
vt 0 0
vt 0 0
vt 0 0
vt 0.4607763 0.9757653
vt 0.5129708 0.9674909
vt 0.471976 0.8599633
vt 0.426024 0.8782412
vt 0.4340732 0.7589191
vt 0.3902596 0.7718854
vt 0.407351 0.6369288
vt 0.3620853 0.6431153
vt 0 0
vt 0 0
vt 0.1075466 0.8125968
vt 0.07327978 0.8502529
vt 0.1140268 0.9113246
vt 0.1424007 0.895533
vt 0.1785806 0.9779735
vt 0.1164143 0.809287
vt 0.1156032 0.8046781
vt 0.1725636 0.8022555
vt 0.1719293 0.748378
vt 0.2216263 0.6999694
vt 0.1734166 0.8898869
vt 0.2280706 0.8082938
vt 0.2044896 0.8944488
vt 0.2376788 0.9120977
vt 0.2911125 0.8286593
vt 0.3296946 0.714533
vt 0.2449589 0.7014979
vt 0.2466956 0.6747901
vt 0.3328342 0.5889096
vt 0.3442095 0.5890968
vt 0.4607763 0.9757653
vt 0.471976 0.8599633
vt 0.5129708 0.9674909
vt 0.426024 0.8782412
vt 0.4340732 0.7589191
vt 0.3902596 0.7718854
vt 0.2911125 0.8286593
vt 0.2280706 0.8082938
vt 0 0
vt 0.2044896 0.8944488
vt 0.2376788 0.9120977
vt 0.1785806 0.9779735
vt 0.1734166 0.8898869
vt 0.2262139 0.8080918
vt 0.1727883 0.8253416
vt 0.1424007 0.895533
vt 0.1140268 0.9113246
vt 0.1251977 0.8384381
vt 0.07327978 0.8502529
vt 0 0
vt 0 0
vt 0.2262139 0.8080918
vt 0 0
vt 0.5648478 0.779982
vt 0.5097832 0.8526373
vt 0.5033783 0.747584
vt 0.5492771 0.856815
vt 0.6215371 0.8052875
vt 0.5129708 0.9674909
vt 0.471976 0.8599633
vt 0.5020181 0.7468478
vt 0.4340732 0.7589191
vt 0.587829 0.8735032
vt 0.6228192 0.9042481
vt 0.6892438 0.8297963
vt 0.4198168 0.5064198
vt 0.3991709 0.5055287
vt 0.407351 0.6369288
vt 0.4984792 0.6286375
vt 0.4990433 0.591607
vt 0.4340732 0.7589191
vt 0.5319964 0.6291802
vt 0.5033193 0.7466166
vt 0.471976 0.8599633
vt 0.5710264 0.7494941
vt 0.5784528 0.6857769
vt 0.5097832 0.8526373
vt 0.5129708 0.9674909
vt 0.6404054 0.7671036
vt 0.6414045 0.7633331
vt 0.6478159 0.7707356
vt 0.5492771 0.856815
vt 0.587829 0.8735032
vt 0.6892438 0.8297963
vt 0.6228192 0.9042481
vt 0 0
vt 0.4198168 0.5064198
vt 0.3328342 0.5889096
vt 0 0
vt 0.2466956 0.6747901
vt 0.3328342 0.5889096
vt 0.4198168 0.5064198
vt 0.4990433 0.591607
vt 0.5319964 0.6291802
vt 0.2216263 0.6999694
vt 0.5784528 0.6857769
vt 0.1719293 0.748378
vt 0.6414045 0.7633331
vt 0.1156032 0.8046781
vt 0.6478159 0.7707356
vt 0.1075466 0.8125968
vt 0.6892438 0.8297963
vt 0.07327978 0.8502529
vt 0.07327978 0.8502529
vt 0.6892438 0.8297963
vt 0.6215371 0.8052875
vt 0.1251977 0.8384381
vt 0.5648478 0.779982
vt 0.1727883 0.8253416
vt 0.5033783 0.747584
vt 0.2262139 0.8080918
vt 0 0
vt 0.2911125 0.8286593
vt 0 0
vt 0 0
vn 0.883752 -0.1803584 0.4318023
vn 0.883752 -0.1803584 0.4318023
vn 0.883752 -0.1803584 0.4318023
vn 0 0.993625 0.1127358
vn 0 0.993625 0.1127358
vn -0.05401915 0.9921517 0.1127688
vn -0.05316401 0.9922016 0.112737
vn -0.1118215 0.98915 0.09528019
vn -0.1120669 0.9891309 0.09518974
vn -0.1673067 0.9844605 0.05334771
vn -0.1673668 0.9844552 0.05325586
vn -0.1870224 0.9819286 0.02896283
vn -0.1870224 0.9819286 0.02896283
vn 0.1352628 0.6801286 -0.7205061
vn 0.02487299 0.6406855 -0.7674004
vn 0 0.4491536 -0.8934546
vn 0.1718225 0.4153345 -0.8932941
vn 0 0.1163383 -0.9932097
vn 0.3051876 0.7368146 -0.603295
vn 0.4033457 0.8048602 -0.4353301
vn 0.5639385 0.5639079 -0.6033086
vn 0.6959646 0.5716285 -0.4345964
vn 0.7768409 0.5190435 -0.3565277
vn 0.3182845 0.3185591 -0.892869
vn 0.7382541 0.3016191 -0.6033298
vn 0.4189947 0.17231 -0.891489
vn 0.4490542 0.08700921 -0.889258
vn 0.7906341 0.1493922 -0.5937843
vn 0.9420347 0.180124 -0.2830652
vn 0.8856038 0.3630249 -0.2896875
vn 0.9509917 0.2729981 -0.1452124
vn 0.9719161 0.1872356 -0.1425554
vn 0.9719161 0.1872356 -0.1425554
vn 0 0.993625 0.1127358
vn 0.05401915 0.9921517 0.1127688
vn 0 0.993625 0.1127358
vn 0.05316401 0.9922016 0.112737
vn 0.1076709 0.9897907 0.09338799
vn 0.1078832 0.9897792 0.09326483
vn -0.7907332 0.1576949 -0.591501
vn -0.6747751 0.219218 -0.7047142
vn -0.8860438 0.1786615 -0.4277926
vn -0.4196956 0.172981 -0.8910292
vn -0.4498489 0.09000029 -0.8885584
vn 0 0.1163383 -0.9932097
vn -0.3182845 0.3185591 -0.892869
vn -0.6747751 0.219218 -0.7047142
vn -0.4689597 0.437006 -0.7675301
vn -0.1718225 0.4153345 -0.8932941
vn 0 0.4491536 -0.8934546
vn -0.2440932 0.5925622 -0.7676513
vn 0.02487299 0.6406855 -0.7674004
vn 0.3039718 -0.6913832 -0.6554315
vn 0.3039718 -0.6913832 -0.6554315
vn 0.3037593 -0.6914163 -0.655495
vn 0.303787 -0.6914099 -0.6554889
vn 0.4691674 -0.4373361 0.7672152
vn 0.421167 -0.174357 0.8900663
vn 0.6728595 -0.2187931 0.706675
vn 0.3223701 -0.3224006 0.8900198
vn 0.2441853 -0.5928382 0.7674089
vn 0 -0.1286985 0.9916837
vn 0.4542745 -0.09003089 0.8863007
vn 0.6728595 -0.2187931 0.706675
vn 0.7873552 -0.1593693 0.5955444
vn 0.1744162 -0.4211625 0.8900568
vn 0 -0.4558358 0.8900639
vn -0.02490377 -0.6409669 0.7671643
vn -0.9711882 -0.189617 0.1443567
vn -0.9711882 -0.189617 0.1443567
vn -0.9401732 -0.1849156 0.2861477
vn -0.8842049 -0.3651328 0.2913066
vn -0.9502814 -0.2747658 0.1465234
vn -0.7868048 -0.1564698 0.597039
vn -0.7763758 -0.5187334 0.3579892
vn -0.7363064 -0.3049479 0.6040362
vn -0.4542745 -0.09003089 0.8863007
vn -0.5634599 -0.5634599 0.6041736
vn -0.6951688 -0.5710163 0.4366703
vn -0.421167 -0.174357 0.8900663
vn 0 -0.1286985 0.9916837
vn -0.3049528 -0.7361962 0.6041679
vn -0.4028834 -0.8039356 0.4374616
vn -0.1352596 -0.6800824 0.7205504
vn -0.3223701 -0.3224006 0.8900198
vn -0.1744162 -0.4211625 0.8900568
vn -0.02490377 -0.6409669 0.7671643
vn 0 -0.4558358 0.8900639
vn 0.01104799 0.002929854 -0.9999347
vn 0.01104799 0.002929854 -0.9999347
vn 0.01104799 0.002929854 -0.9999347
vn 0.01104799 0.002929854 -0.9999347
vn 0.302444 -0.6910434 -0.6564957
vn 0.3025065 -0.6909551 -0.6565599
vn 0.3025065 -0.6909551 -0.6565599
vn 0.3024443 -0.6910136 -0.656527
vn 0.3023818 -0.6911018 -0.6564628
vn 0.3023818 -0.6911018 -0.6564628
vn 0.3023818 -0.6911018 -0.6564628
vn 0.3023818 -0.6911018 -0.6564628
vn 0.3023818 -0.6911018 -0.6564628
vn 0.3023818 -0.6911018 -0.6564628
vn 0.3023818 -0.6911018 -0.6564628
vn 0.3023818 -0.6911018 -0.6564628
vn 0.3025316 -0.691187 -0.6563041
vn 0.3025377 -0.6912009 -0.6562868
vn 0.3025377 -0.6912009 -0.6562868
vn 0.3025316 -0.691187 -0.6563041
vn 0.3030284 -0.6913285 -0.6559258
vn 0.3030284 -0.6913285 -0.6559258
vn 0.3034579 -0.691425 -0.6556254
vn 0.3034579 -0.691425 -0.6556254
vn 0.303787 -0.6914099 -0.6554889
vn 0.3037593 -0.6914163 -0.655495
vn 0.1076709 0.9897907 0.09338799
vn 0.1078832 0.9897792 0.09326483
vn 0.1391683 0.9875152 0.07379583
vn 0.1391683 0.9875152 0.07379583
g WispSphereShattered_cell.001_0
f 3/3/3 2/2/2 1/1/1
f 6/6/6 5/5/5 4/4/4
f 7/7/7 6/6/6 4/4/4
f 6/6/6 7/7/7 8/8/8
f 7/7/7 9/9/9 8/8/8
f 10/10/10 8/8/8 9/9/9
f 11/11/11 10/10/10 9/9/9
f 11/11/11 12/12/12 10/10/10
f 12/12/12 13/13/13 10/10/10
f 16/16/16 15/15/15 14/14/14
f 14/14/14 17/17/17 16/16/16
f 18/18/18 16/16/16 17/17/17
f 14/14/14 19/19/19 17/17/17
f 20/20/20 19/19/19 14/14/14
f 21/21/21 19/19/19 20/20/20
f 17/17/17 19/19/19 21/21/21
f 22/22/22 21/21/21 20/20/20
f 21/21/21 22/22/22 23/23/23
f 18/18/18 17/17/17 24/24/24
f 24/24/24 17/17/17 21/21/21
f 23/23/23 25/25/25 21/21/21
f 24/24/24 21/21/21 25/25/25
f 18/18/18 24/24/24 26/26/26
f 26/26/26 24/24/24 25/25/25
f 18/18/18 26/26/26 27/27/27
f 27/27/27 26/26/26 28/28/28
f 26/26/26 25/25/25 28/28/28
f 29/29/29 28/28/28 25/25/25
f 23/23/23 30/30/30 25/25/25
f 30/30/30 29/29/29 25/25/25
f 31/31/31 30/30/30 23/23/23
f 30/30/30 31/31/31 32/32/32
f 32/32/32 29/29/29 30/30/30
f 32/32/32 33/33/33 29/29/29
f 36/36/36 35/35/35 34/34/34
f 35/35/35 37/37/37 34/34/34
f 37/37/37 35/35/35 38/38/38
f 39/39/39 37/37/37 38/38/38
f 42/42/42 41/41/41 40/40/40
f 41/41/41 43/43/43 40/40/40
f 43/43/43 44/44/44 40/40/40
f 43/43/43 45/45/45 44/44/44
f 46/46/46 45/45/45 43/43/43
f 46/46/46 43/43/43 47/47/47
f 48/48/48 46/46/46 47/47/47
f 49/49/49 45/45/45 46/46/46
f 49/49/49 46/46/46 48/48/48
f 50/50/50 45/45/45 49/49/49
f 51/51/51 49/49/49 48/48/48
f 50/50/50 49/49/49 51/51/51
f 52/52/52 50/50/50 51/51/51
f 55/55/55 54/54/54 53/53/53
f 56/56/56 55/55/55 53/53/53
f 59/59/59 58/58/58 57/57/57
f 58/58/58 60/60/60 57/57/57
f 57/57/57 60/60/60 61/61/61
f 58/58/58 62/62/62 60/60/60
f 63/63/63 62/62/62 58/58/58
f 63/63/63 58/58/58 64/64/64
f 65/65/65 63/63/63 64/64/64
f 60/60/60 62/62/62 66/66/66
f 60/60/60 66/66/66 61/61/61
f 66/66/66 62/62/62 67/67/67
f 61/61/61 66/66/66 67/67/67
f 68/68/68 61/61/61 67/67/67
f 71/71/71 70/70/70 69/69/69
f 72/72/72 71/71/71 69/69/69
f 69/69/69 73/73/73 72/72/72
f 74/74/74 71/71/71 72/72/72
f 75/75/75 72/72/72 73/73/73
f 76/76/76 74/74/74 72/72/72
f 76/76/76 72/72/72 75/75/75
f 77/77/77 74/74/74 76/76/76
f 78/78/78 76/76/76 75/75/75
f 75/75/75 79/79/79 78/78/78
f 80/80/80 77/77/77 76/76/76
f 80/80/80 76/76/76 78/78/78
f 81/81/81 77/77/77 80/80/80
f 82/82/82 78/78/78 79/79/79
f 83/83/83 82/82/82 79/79/79
f 84/84/84 82/82/82 83/83/83
f 85/85/85 80/80/80 78/78/78
f 81/81/81 80/80/80 85/85/85
f 85/85/85 78/78/78 82/82/82
f 86/86/86 82/82/82 84/84/84
f 86/86/86 85/85/85 82/82/82
f 81/81/81 85/85/85 86/86/86
f 86/86/86 84/84/84 87/87/87
f 81/81/81 86/86/86 88/88/88
f 87/87/87 88/88/88 86/86/86
f 91/91/91 90/90/90 89/89/89
f 92/92/92 91/91/91 89/89/89
f 95/95/95 94/94/94 93/93/93
f 96/96/96 95/95/95 93/93/93
f 97/97/97 96/96/96 93/93/93
f 98/98/98 97/97/97 93/93/93
f 99/99/99 97/97/97 98/98/98
f 100/100/100 99/99/99 98/98/98
f 101/101/101 99/99/99 100/100/100
f 102/102/102 101/101/101 100/100/100
f 103/103/103 101/101/101 102/102/102
f 104/104/104 103/103/103 102/102/102
f 105/105/105 103/103/103 104/104/104
f 106/106/106 105/105/105 104/104/104
f 109/109/109 108/108/108 107/107/107
f 110/110/110 109/109/109 107/107/107
f 111/111/111 109/109/109 110/110/110
f 112/112/112 111/111/111 110/110/110
f 113/113/113 111/111/111 112/112/112
f 114/114/114 113/113/113 112/112/112
f 117/117/117 116/116/116 115/115/115
f 118/118/118 117/117/117 115/115/115
