g WPPlanter1LongSurfaceMesh
v 0.6826373 -2.846083 1.334526
v 0.8460828 -2.682637 1.334526
v 0.8460828 2.682637 1.334526
v 0.6826373 2.846083 1.334526
v -0.6826373 -2.846083 1.334526
v -0.6826373 2.846083 1.334526
v -0.8460828 -2.682637 1.334526
v -0.8460828 2.682637 1.334526
v -0.6826373 -2.846083 1.334526
v -0.5434816 -2.673609 1.43758
v 0.5434816 -2.673609 1.43758
v 0.6826373 -2.846083 1.334526
v -0.8460828 -2.682637 1.334526
v 0.6736087 -2.543482 1.43758
v 0.8460828 -2.682637 1.334526
v 0.6736087 2.543482 1.43758
v 0.8460828 2.682637 1.334526
v 0.5434816 2.673609 1.43758
v 0.6826373 2.846083 1.334526
v -0.5434816 2.673609 1.43758
v -0.6826373 2.846083 1.334526
v -0.6736087 2.543482 1.43758
v -0.8460828 2.682637 1.334526
v -0.6736087 -2.543482 1.43758
vt 0.9034103 0
vt 0.9999999 0.09658936
vt 0.9999999 0.9034101
vt 0.9034103 1
vt 0.09658951 0
vt 0.09658951 1
vt 0 0.09658936
vt 0 0.9034101
vt 0.09658951 0
vt 0.1788249 0.1019249
vt 0.821175 0.1019249
vt 0.9034103 0
vt 0 0.09658936
vt 0.8980747 0.1788244
vt 0.9999999 0.09658936
vt 0.8980747 0.821175
vt 0.9999999 0.9034101
vt 0.821175 0.8980748
vt 0.9034103 1
vt 0.1788249 0.8980748
vt 0.09658951 1
vt 0.1019251 0.821175
vt 0 0.9034101
vt 0.1019251 0.1788244
vn 0 0 -1
vn 0 0 -1
vn 0 0 -1
vn 0 0 -1
vn 0 0 -1
vn 0 0 -1
vn 0 0 -1
vn 0 0 -1
vn -0.1840939 -0.3904366 0.9020359
vn -0.0835313 -0.2702483 0.9591603
vn 0.0835313 -0.2702483 0.9591603
vn 0.1840939 -0.3904366 0.9020359
vn -0.3904366 -0.1840939 0.9020359
vn 0.2702483 -0.0835313 0.9591603
vn 0.3904366 -0.1840939 0.9020359
vn 0.2702483 0.0835313 0.9591603
vn 0.3904366 0.1840939 0.9020359
vn 0.0835313 0.2702483 0.9591603
vn 0.1840939 0.3904366 0.9020359
vn -0.0835313 0.2702483 0.9591603
vn -0.1840939 0.3904366 0.9020359
vn -0.2702483 0.0835313 0.9591603
vn -0.3904366 0.1840939 0.9020359
vn -0.2702483 -0.0835313 0.9591603
g WPPlanter1LongSurfaceMesh_0
f 3/3/3 2/2/2 1/1/1
f 1/1/1 4/4/4 3/3/3
f 1/1/1 5/5/5 4/4/4
f 5/5/5 6/6/6 4/4/4
f 5/5/5 7/7/7 6/6/6
f 7/7/7 8/8/8 6/6/6
f 11/11/11 10/10/10 9/9/9
f 12/12/12 11/11/11 9/9/9
f 9/9/9 10/10/10 13/13/13
f 14/14/14 11/11/11 12/12/12
f 15/15/15 14/14/14 12/12/12
f 16/16/16 14/14/14 15/15/15
f 17/17/17 16/16/16 15/15/15
f 14/14/14 16/16/16 18/18/18
f 18/18/18 16/16/16 17/17/17
f 18/18/18 11/11/11 14/14/14
f 19/19/19 18/18/18 17/17/17
f 18/18/18 20/20/20 11/11/11
f 20/20/20 18/18/18 19/19/19
f 20/20/20 10/10/10 11/11/11
f 21/21/21 20/20/20 19/19/19
f 22/22/22 20/20/20 21/21/21
f 20/20/20 22/22/22 10/10/10
f 23/23/23 22/22/22 21/21/21
f 10/10/10 24/24/24 13/13/13
f 22/22/22 24/24/24 10/10/10
f 24/24/24 22/22/22 23/23/23
f 13/13/13 24/24/24 23/23/23
