g WPPlatform2BarrierMesh
v -9.769083 -1.436723E-06 3.820931
v -9.722044 0.9575382 3.820931
v -9.484406 0.934132 3.820931
v -9.530296 -8.267809E-07 3.820931
v -9.352179 1.831407 3.553981
v -9.391396 1.567027 3.820931
v -9.621486 1.63544 3.820931
v -9.582269 1.899819 3.553981
v -9.332008 1.521481 3.755642
v -9.298529 1.748025 3.526914
v -9.298468 1.748016 3.247851
v -9.419355 0.9277248 3.755642
v -9.419355 0.9277248 3.247851
v -9.424882 0.8833191 3.241664
v -9.30978 1.664347 3.241664
v -9.468276 -6.451468E-07 3.241664
v -9.464931 -6.598148E-07 3.247851
v -9.464931 -6.598148E-07 3.755642
v -9.424881 -0.8833203 3.241664
v -9.419354 -0.927726 3.247851
v -9.419354 -0.927726 3.755642
v -9.309779 -1.664347 3.241664
v -9.332007 -1.521482 3.755642
v -9.298467 -1.748016 3.247851
v -9.298528 -1.748025 3.526914
v -9.688505 -1.62746 3.755642
v -9.654903 -1.853985 3.526914
v -9.654903 -1.853985 3.247851
v -9.786932 -0.9639294 3.247851
v -9.786932 -0.9639294 3.755642
v -9.774864 -0.9177908 3.241664
v -9.649156 -1.765243 3.241664
v -9.819952 -1.543445E-06 3.241664
v -9.834286 -1.603272E-06 3.247851
v -9.834286 -1.603272E-06 3.755642
v -9.774864 0.9177908 3.241664
v -9.786932 0.9639295 3.247851
v -9.786932 0.9639295 3.755642
v -9.649156 1.765243 3.241664
v -9.688506 1.62746 3.755642
v -9.654903 1.853985 3.247851
v -9.654903 1.853985 3.526914
v -9.582269 -1.899819 3.247851
v -9.582269 -1.899819 3.553981
v -9.352178 -1.831408 3.553981
v -9.352178 -1.831407 3.247851
v -9.579997 -1.808884 3.241664
v -9.36092 -1.743747 3.241664
v -9.722044 -0.9575384 3.820931
v -9.769083 -1.436723E-06 3.820931
v -9.530296 -8.267809E-07 3.820931
v -9.484406 -0.934133 3.820931
v -9.621486 -1.63544 3.820931
v -9.722044 -0.9575384 3.820931
v -9.484406 -0.934133 3.820931
v -9.391395 -1.567028 3.820931
v -9.722044 0.9575382 3.820931
v -9.621486 1.63544 3.820931
v -9.391396 1.567027 3.820931
v -9.484406 0.934132 3.820931
v -9.391395 -1.567028 3.820931
v -9.352178 -1.831408 3.553981
v -9.582269 -1.899819 3.553981
v -9.621486 -1.63544 3.820931
v -9.352179 1.831407 3.247851
v -9.352179 1.831407 3.553981
v -9.582269 1.899819 3.553981
v -9.582269 1.899819 3.247851
v -9.360921 1.743746 3.241664
v -9.579997 1.808884 3.241664
v -9.352179 1.831407 3.247851
v -9.360921 1.743746 3.241664
v -9.30978 1.664347 3.241664
v -9.298468 1.748016 3.247851
v -9.298529 1.748025 3.526914
v -9.352179 1.831407 3.553981
v -9.332008 1.521481 3.755642
v -9.391396 1.567027 3.820931
v -9.419355 0.9277248 3.755642
v -9.484406 0.934132 3.820931
v -9.464931 -6.598148E-07 3.755642
v -9.530296 -8.267809E-07 3.820931
v -9.419354 -0.927726 3.755642
v -9.484406 -0.934133 3.820931
v -9.332007 -1.521482 3.755642
v -9.391395 -1.567028 3.820931
v -9.298528 -1.748025 3.526914
v -9.352178 -1.831408 3.553981
v -9.298467 -1.748016 3.247851
v -9.352178 -1.831407 3.247851
v -9.36092 -1.743747 3.241664
v -9.309779 -1.664347 3.241664
v -9.424882 0.8833191 3.241664
v -9.424882 0.8833191 2.995539
v -9.468276 -6.451468E-07 2.995539
v -9.468276 -6.451468E-07 3.241664
v -9.424881 -0.8833203 2.995539
v -9.424881 -0.8833203 3.241664
v -9.309779 -1.664347 2.995539
v -9.309779 -1.664347 3.241664
v -9.36092 -1.743747 2.995539
v -9.36092 -1.743747 3.241664
v -9.579997 -1.808884 2.995539
v -9.579997 -1.808884 3.241664
v -9.649156 -1.765243 2.995539
v -9.649156 -1.765243 3.241664
v -9.774864 -0.9177908 2.995539
v -9.774864 -0.9177908 3.241664
v -9.819952 -1.543445E-06 2.995539
v -9.819952 -1.543445E-06 3.241664
v -9.774864 0.9177908 2.995539
v -9.774864 0.9177908 3.241664
v -9.649156 1.765243 2.995539
v -9.649156 1.765243 3.241664
v -9.579997 1.808884 2.995539
v -9.579997 1.808884 3.241664
v -9.360921 1.743746 2.995539
v -9.360921 1.743746 3.241664
v -9.30978 1.664347 2.995539
v -9.30978 1.664347 3.241664
v -9.424882 0.8833191 2.995539
v -9.424882 0.8833191 3.241664
v -9.582269 -1.899819 3.247851
v -9.579997 -1.808884 3.241664
v -9.649156 -1.765243 3.241664
v -9.654903 -1.853985 3.247851
v -9.654903 -1.853985 3.526914
v -9.582269 -1.899819 3.553981
v -9.688505 -1.62746 3.755642
v -9.621486 -1.63544 3.820931
v -9.786932 -0.9639294 3.755642
v -9.722044 -0.9575384 3.820931
v -9.834286 -1.603272E-06 3.755642
v -9.769083 -1.436723E-06 3.820931
v -9.786932 0.9639295 3.755642
v -9.722044 0.9575382 3.820931
v -9.688506 1.62746 3.755642
v -9.621486 1.63544 3.820931
v -9.654903 1.853985 3.526914
v -9.582269 1.899819 3.553981
v -9.654903 1.853985 3.247851
v -9.582269 1.899819 3.247851
v -9.579997 1.808884 3.241664
v -9.649156 1.765243 3.241664
vt 0.01303549 0.9760497
vt 0.4940021 0.97605
vt 0.4940021 0.898314
vt 0.01303552 0.898314
vt 0.01303549 0.9759419
vt 0.4940021 0.9759426
vt 0.4940021 0.8983096
vt 0.01303552 0.8983095
vt 1.715021 0.3924218
vt 1.922834 0.2879292
vt 1.923824 0.1196868
vt 1.194946 0.3923318
vt 1.195135 0.1195613
vt 1.195135 0.1195613
vt 1.923824 0.1196868
vt 0.4090674 0.1194258
vt 0.4090674 0.1194258
vt 0.408879 0.3921964
vt -0.377 0.1192903
vt -0.377 0.1192903
vt -0.3771881 0.3920608
vt -1.105689 0.1191643
vt -0.8972635 0.3919708
vt -1.105689 0.1191643
vt -1.104931 0.2874069
vt -1.073897 0.1330909
vt -1.283205 0.2376191
vt -1.283205 0.4058618
vt -0.4607967 0.4058616
vt -0.4607967 0.1330908
vt -0.4607967 0.4058616
vt -1.283205 0.4058618
vt 0.4212921 0.4058617
vt 0.4212921 0.4058617
vt 0.4212921 0.1330906
vt 1.303384 0.4058617
vt 1.303384 0.4058617
vt 1.303384 0.1330909
vt 2.125793 0.4058617
vt 1.916484 0.1330908
vt 2.125793 0.4058617
vt 2.125793 0.237619
vt 0.01303549 0.9760014
vt 0.4940021 0.9760014
vt 0.4940021 0.8983681
vt 0.01303552 0.8983681
vt 0.01303549 0.9760014
vt 0.01303552 0.8983681
vt 0.01303549 0.97605
vt 0.4940021 0.9760498
vt 0.4940021 0.898314
vt 0.01303552 0.898314
vt 0.01303549 0.9760013
vt 0.4940021 0.9760501
vt 0.4940022 0.898314
vt 0.01303552 0.8983683
vt 0.01303549 0.97605
vt 0.4940021 0.9760013
vt 0.4940021 0.8983684
vt 0.01303552 0.898314
vt 0.01303549 0.9759423
vt 0.4940021 0.9759426
vt 0.4940021 0.8983095
vt 0.01303552 0.8983095
vt 0.01303549 0.9759424
vt 0.4940021 0.9759426
vt 0.4940022 0.8983094
vt 0.01303552 0.8983093
vt 0.01303549 0.9759424
vt 0.01303552 0.8983093
vt -1.0475 0.4736292
vt -1.0475 0.4736292
vt -1.0475 0.7273072
vt -1.0475 0.7273072
vt -0.7938217 0.7273073
vt -0.7938217 0.4736292
vt -0.5607283 0.7273073
vt -0.5607283 0.4736292
vt -0.1293891 0.7273074
vt -0.1293891 0.4736293
vt 0.5000005 0.7273074
vt 0.5000005 0.4736294
vt 1.129389 0.7273075
vt 1.129389 0.4736294
vt 1.560729 0.7273075
vt 1.560729 0.4736294
vt 1.793822 0.7273075
vt 1.793822 0.4736294
vt 2.0475 0.7273076
vt 2.0475 0.4736295
vt 2.0475 0.4736295
vt 2.0475 0.7273076
vt 3.79978 0.7113685
vt 3.79978 0.3466273
vt 3.025777 0.3466273
vt 3.025777 0.7113684
vt 2.251775 0.3466273
vt 2.251775 0.7113684
vt 1.579565 0.3466272
vt 1.579565 0.7113684
vt 1.498947 0.3466272
vt 1.498947 0.7113684
vt 1.302319 0.3466272
vt 1.302319 0.7113684
vt 1.229483 0.3466272
vt 1.229483 0.7113684
vt 0.5000002 0.3466272
vt 0.5000002 0.7113683
vt -0.274002 0.3466271
vt -0.274002 0.7113683
vt -1.048006 0.3466271
vt -1.048006 0.7113683
vt -1.777488 0.3466271
vt -1.777488 0.7113681
vt -1.850325 0.3466271
vt -1.850325 0.7113681
vt -2.046952 0.3466271
vt -2.046952 0.7113681
vt -2.12757 0.3466271
vt -2.12757 0.7113681
vt -2.79978 0.3466271
vt -2.79978 0.7113681
vt 2.0475 0.7275903
vt 2.0475 0.7275903
vt 2.0475 0.4739122
vt 2.0475 0.4739122
vt 1.793822 0.4739122
vt 1.793822 0.7275903
vt 1.560729 0.4739122
vt 1.560729 0.7275903
vt 1.129389 0.4739121
vt 1.129389 0.7275902
vt 0.5000005 0.4739121
vt 0.5000005 0.7275902
vt -0.1293891 0.473912
vt -0.1293891 0.7275901
vt -0.5607283 0.473912
vt -0.5607283 0.72759
vt -0.7938217 0.473912
vt -0.7938217 0.72759
vt -1.0475 0.4739119
vt -1.0475 0.72759
vt -1.0475 0.72759
vt -1.0475 0.4739119
vn -0.3931199 0 0.9194872
vn -0.3912278 0.03851544 0.9194875
vn 0.3704049 -0.03622564 0.9281638
vn 0.372122 0 0.9281839
vn 0.56595 0.7476009 0.3475538
vn 0.4466781 0.2751606 0.8513315
vn -0.2744322 0.4165009 0.866726
vn -0.1492969 0.919647 0.3632627
vn 0.9170504 0.01785392 0.3983712
vn 0.9579346 0.237683 0.1608358
vn 0.7832847 0.1869934 -0.5928732
vn 0.91756 -0.08981804 0.3873193
vn 0.9907265 -0.1191448 0.06530989
vn 0.9702229 -0.0750457 -0.2302948
vn 0.998657 0.03753891 -0.03570774
vn 0.9698979 0 -0.2435121
vn 0.968979 0 -0.2471431
vn 0.9219734 0 0.3872533
vn 0.9702229 0.0750457 -0.2302948
vn 0.9907265 0.1191448 0.06530989
vn 0.91756 0.08981804 0.3873193
vn 0.9986559 -0.03753887 -0.03573822
vn 0.9170504 -0.01785392 0.3983712
vn 0.7832847 -0.1869934 -0.5928732
vn 0.9579346 -0.237683 0.1608358
vn -0.8554999 -0.3140068 0.4117277
vn -0.8089035 -0.5614562 0.1744765
vn -0.6675281 -0.4471754 -0.5953488
vn -0.814568 -0.08728605 -0.5734632
vn -0.921256 -0.09073392 0.3782259
vn -0.8237655 -0.07199403 -0.5623408
vn -0.6203354 -0.3274416 -0.7127173
vn -0.8302051 0 -0.5574579
vn -0.840584 0 -0.5416812
vn -0.9257132 0 0.3782264
vn -0.8237655 0.07199403 -0.5623408
vn -0.814568 0.08728605 -0.5734632
vn -0.921256 0.09073392 0.3782259
vn -0.6203354 0.3274416 -0.7127173
vn -0.8554999 0.3140068 0.4117277
vn -0.6675281 0.4471754 -0.5953488
vn -0.8089035 0.5614562 0.1744765
vn -0.1079464 -0.7897759 -0.6038225
vn -0.1492969 -0.919647 0.3632627
vn 0.56595 -0.7476009 0.3475538
vn 0.4712527 -0.6350816 -0.6120393
vn -0.08704114 -0.6125841 -0.7855982
vn 0.4014485 -0.5145218 -0.7576981
vn -0.3912278 -0.03851544 0.9194875
vn -0.3931199 0 0.9194872
vn 0.372122 0 0.9281839
vn 0.3704049 0.03622564 0.9281638
vn -0.2744322 -0.4165009 0.866726
vn -0.3912278 -0.03851544 0.9194875
vn 0.3704049 0.03622564 0.9281638
vn 0.4466781 -0.2751606 0.8513315
vn -0.3912278 0.03851544 0.9194875
vn -0.2744322 0.4165009 0.866726
vn 0.4466781 0.2751606 0.8513315
vn 0.3704049 -0.03622564 0.9281638
vn 0.4466781 -0.2751606 0.8513315
vn 0.56595 -0.7476009 0.3475538
vn -0.1492969 -0.919647 0.3632627
vn -0.2744322 -0.4165009 0.866726
vn 0.4712435 0.6350999 -0.6120275
vn 0.56595 0.7476009 0.3475538
vn -0.1492969 0.919647 0.3632627
vn -0.1079464 0.7897759 -0.6038225
vn 0.4014229 0.5145281 -0.7577075
vn -0.08704114 0.6125841 -0.7855982
vn 0.4712435 0.6350999 -0.6120275
vn 0.4014229 0.5145281 -0.7577075
vn 0.998657 0.03753891 -0.03570774
vn 0.7832847 0.1869934 -0.5928732
vn 0.9579346 0.237683 0.1608358
vn 0.56595 0.7476009 0.3475538
vn 0.9170504 0.01785392 0.3983712
vn 0.4466781 0.2751606 0.8513315
vn 0.91756 -0.08981804 0.3873193
vn 0.3704049 -0.03622564 0.9281638
vn 0.9219734 0 0.3872533
vn 0.372122 0 0.9281839
vn 0.91756 0.08981804 0.3873193
vn 0.3704049 0.03622564 0.9281638
vn 0.9170504 -0.01785392 0.3983712
vn 0.4466781 -0.2751606 0.8513315
vn 0.9579346 -0.237683 0.1608358
vn 0.56595 -0.7476009 0.3475538
vn 0.7832847 -0.1869934 -0.5928732
vn 0.4712527 -0.6350816 -0.6120393
vn 0.4014485 -0.5145218 -0.7576981
vn 0.9986559 -0.03753887 -0.03573822
vn 0.9702229 -0.0750457 -0.2302948
vn 0.9952317 -0.09753942 0
vn 1 0 0
vn 0.9698979 0 -0.2435121
vn 0.9952317 0.09753942 0
vn 0.9702229 0.0750457 -0.2302948
vn 0.9774175 -0.211317 0
vn 0.9986559 -0.03753887 -0.03573822
vn 0.6002294 -0.7998278 0
vn 0.4014485 -0.5145218 -0.7576981
vn -0.1365104 -0.9906386 0
vn -0.08704114 -0.6125841 -0.7855982
vn -0.8377897 -0.5459931 0
vn -0.6203354 -0.3274416 -0.7127173
vn -0.9951869 -0.0979958 0
vn -0.8237655 -0.07199403 -0.5623408
vn -1 0 0
vn -0.8302051 0 -0.5574579
vn -0.9951869 0.0979958 0
vn -0.8237655 0.07199403 -0.5623408
vn -0.8377897 0.5459931 0
vn -0.6203354 0.3274416 -0.7127173
vn -0.1365104 0.9906386 0
vn -0.08704114 0.6125841 -0.7855982
vn 0.6002294 0.7998278 0
vn 0.4014229 0.5145281 -0.7577075
vn 0.9774175 0.211317 0
vn 0.998657 0.03753891 -0.03570774
vn 0.9952317 -0.09753942 0
vn 0.9702229 -0.0750457 -0.2302948
vn -0.1079464 -0.7897759 -0.6038225
vn -0.08704114 -0.6125841 -0.7855982
vn -0.6203354 -0.3274416 -0.7127173
vn -0.6675281 -0.4471754 -0.5953488
vn -0.8089035 -0.5614562 0.1744765
vn -0.1492969 -0.919647 0.3632627
vn -0.8554999 -0.3140068 0.4117277
vn -0.2744322 -0.4165009 0.866726
vn -0.921256 -0.09073392 0.3782259
vn -0.3912278 -0.03851544 0.9194875
vn -0.9257132 0 0.3782264
vn -0.3931199 0 0.9194872
vn -0.921256 0.09073392 0.3782259
vn -0.3912278 0.03851544 0.9194875
vn -0.8554999 0.3140068 0.4117277
vn -0.2744322 0.4165009 0.866726
vn -0.8089035 0.5614562 0.1744765
vn -0.1492969 0.919647 0.3632627
vn -0.6675281 0.4471754 -0.5953488
vn -0.1079464 0.7897759 -0.6038225
vn -0.08704114 0.6125841 -0.7855982
vn -0.6203354 0.3274416 -0.7127173
g WPPlatform2BarrierMesh_0
f 3/3/3 2/2/2 1/1/1
f 4/4/4 3/3/3 1/1/1
f 7/7/7 6/6/6 5/5/5
f 8/8/8 7/7/7 5/5/5
f 11/11/11 10/10/10 9/9/9
f 11/11/11 9/9/9 12/12/12
f 12/12/12 13/13/13 11/11/11
f 13/13/13 14/14/14 11/11/11
f 14/14/14 15/15/15 11/11/11
f 16/16/16 14/14/14 13/13/13
f 13/13/13 12/12/12 17/17/17
f 17/17/17 16/16/16 13/13/13
f 12/12/12 18/18/18 17/17/17
f 19/19/19 16/16/16 17/17/17
f 17/17/17 18/18/18 20/20/20
f 20/20/20 19/19/19 17/17/17
f 18/18/18 21/21/21 20/20/20
f 22/22/22 19/19/19 20/20/20
f 20/20/20 21/21/21 23/23/23
f 24/24/24 22/22/22 20/20/20
f 24/24/24 20/20/20 23/23/23
f 23/23/23 25/25/25 24/24/24
f 28/28/28 27/27/27 26/26/26
f 26/26/26 29/29/29 28/28/28
f 26/26/26 30/30/30 29/29/29
f 29/29/29 31/31/31 28/28/28
f 31/31/31 32/32/32 28/28/28
f 33/33/33 31/31/31 29/29/29
f 29/29/29 30/30/30 34/34/34
f 34/34/34 33/33/33 29/29/29
f 30/30/30 35/35/35 34/34/34
f 36/36/36 33/33/33 34/34/34
f 34/34/34 35/35/35 37/37/37
f 37/37/37 36/36/36 34/34/34
f 35/35/35 38/38/38 37/37/37
f 39/39/39 36/36/36 37/37/37
f 37/37/37 38/38/38 40/40/40
f 41/41/41 39/39/39 37/37/37
f 40/40/40 41/41/41 37/37/37
f 40/40/40 42/42/42 41/41/41
f 45/45/45 44/44/44 43/43/43
f 46/46/46 45/45/45 43/43/43
f 43/43/43 47/47/47 46/46/46
f 47/47/47 48/48/48 46/46/46
f 51/51/51 50/50/50 49/49/49
f 52/52/52 51/51/51 49/49/49
f 55/55/55 54/54/54 53/53/53
f 56/56/56 55/55/55 53/53/53
f 59/59/59 58/58/58 57/57/57
f 60/60/60 59/59/59 57/57/57
f 63/63/63 62/62/62 61/61/61
f 64/64/64 63/63/63 61/61/61
f 67/67/67 66/66/66 65/65/65
f 68/68/68 67/67/67 65/65/65
f 65/65/65 69/69/69 68/68/68
f 69/69/69 70/70/70 68/68/68
f 73/73/73 72/72/72 71/71/71
f 74/74/74 73/73/73 71/71/71
f 74/74/74 71/71/71 75/75/75
f 71/71/71 76/76/76 75/75/75
f 75/75/75 76/76/76 77/77/77
f 76/76/76 78/78/78 77/77/77
f 77/77/77 78/78/78 79/79/79
f 78/78/78 80/80/80 79/79/79
f 81/81/81 79/79/79 80/80/80
f 82/82/82 81/81/81 80/80/80
f 83/83/83 81/81/81 82/82/82
f 84/84/84 83/83/83 82/82/82
f 83/83/83 84/84/84 85/85/85
f 84/84/84 86/86/86 85/85/85
f 85/85/85 86/86/86 87/87/87
f 86/86/86 88/88/88 87/87/87
f 87/87/87 88/88/88 89/89/89
f 88/88/88 90/90/90 89/89/89
f 90/90/90 91/91/91 89/89/89
f 91/91/91 92/92/92 89/89/89
f 95/95/95 94/94/94 93/93/93
f 96/96/96 95/95/95 93/93/93
f 97/97/97 95/95/95 96/96/96
f 98/98/98 97/97/97 96/96/96
f 99/99/99 97/97/97 98/98/98
f 100/100/100 99/99/99 98/98/98
f 101/101/101 99/99/99 100/100/100
f 102/102/102 101/101/101 100/100/100
f 103/103/103 101/101/101 102/102/102
f 104/104/104 103/103/103 102/102/102
f 105/105/105 103/103/103 104/104/104
f 106/106/106 105/105/105 104/104/104
f 107/107/107 105/105/105 106/106/106
f 108/108/108 107/107/107 106/106/106
f 109/109/109 107/107/107 108/108/108
f 110/110/110 109/109/109 108/108/108
f 111/111/111 109/109/109 110/110/110
f 112/112/112 111/111/111 110/110/110
f 113/113/113 111/111/111 112/112/112
f 114/114/114 113/113/113 112/112/112
f 115/115/115 113/113/113 114/114/114
f 116/116/116 115/115/115 114/114/114
f 117/117/117 115/115/115 116/116/116
f 118/118/118 117/117/117 116/116/116
f 119/119/119 117/117/117 118/118/118
f 120/120/120 119/119/119 118/118/118
f 121/121/121 119/119/119 120/120/120
f 122/122/122 121/121/121 120/120/120
f 125/125/125 124/124/124 123/123/123
f 126/126/126 125/125/125 123/123/123
f 127/127/127 126/126/126 123/123/123
f 128/128/128 127/127/127 123/123/123
f 127/127/127 128/128/128 129/129/129
f 128/128/128 130/130/130 129/129/129
f 131/131/131 129/129/129 130/130/130
f 132/132/132 131/131/131 130/130/130
f 133/133/133 131/131/131 132/132/132
f 134/134/134 133/133/133 132/132/132
f 135/135/135 133/133/133 134/134/134
f 136/136/136 135/135/135 134/134/134
f 137/137/137 135/135/135 136/136/136
f 138/138/138 137/137/137 136/136/136
f 137/137/137 138/138/138 139/139/139
f 138/138/138 140/140/140 139/139/139
f 141/141/141 139/139/139 140/140/140
f 142/142/142 141/141/141 140/140/140
f 142/142/142 143/143/143 141/141/141
f 143/143/143 144/144/144 141/141/141
