g HippoEffectWingsMesh
v 12.92484 -1.477962 -2.684515
v 14.32478 -1.282432 -4.186652
v 14.1961 -1.577191 -3.666034
v 13.01384 -1.060497 -3.850972
v 14.13114 -1.723502 -4.692877
v 12.78052 -1.693514 -4.975506
v 10.98251 -1.528563 -2.201502
v 10.81882 -1.837209 -5.528675
v 11.09666 -0.9809424 -3.896106
v 9.03576 -1.561471 -2.046593
v 8.890079 -1.902204 -5.757748
v 9.150962 -0.9977797 -3.937232
v 7.017511 -1.76733 -2.417096
v 7.108401 -2.077268 -5.947981
v 7.238937 -1.297764 -4.209888
v 5.309572 -2.250497 -6.105969
v 5.018253 -1.974852 -2.819574
v 5.325071 -1.597921 -4.482815
v 3.01555 -2.187318 -4.837325
v 3.046654 -1.641809 -3.617343
v 0.7215287 -2.12414 -3.568681
v 2.755444 -1.977416 -2.370256
v 0.7682378 -1.685697 -2.751872
v 0.4926345 -1.97998 -1.920939
v -12.92484 -1.477962 -2.684515
v -14.1961 -1.577191 -3.666034
v -14.32478 -1.282432 -4.186652
v -13.01384 -1.060497 -3.850972
v -14.13114 -1.723502 -4.692877
v -12.78052 -1.693514 -4.975506
v -10.98251 -1.528563 -2.201502
v -10.81882 -1.837209 -5.528675
v -11.09666 -0.9809424 -3.896106
v -9.03576 -1.561471 -2.046593
v -8.890079 -1.902204 -5.757748
v -9.150962 -0.9977797 -3.937232
v -7.017511 -1.76733 -2.417096
v -7.108401 -2.077268 -5.947981
v -7.238937 -1.297764 -4.209888
v -5.309572 -2.250497 -6.105969
v -5.018253 -1.974852 -2.819574
v -5.325071 -1.597921 -4.482815
v -3.01555 -2.187318 -4.837325
v -3.046654 -1.641809 -3.617343
v -0.7215287 -2.12414 -3.568681
v -2.755444 -1.977416 -2.370256
v -0.7682378 -1.685697 -2.751872
v -0.4926345 -1.97998 -1.920939
vt 0.1155629 0.231709
vt 0.02949405 0.4763928
vt 0.02723733 0.392161
vt 0.1205768 0.418853
vt 0.03175077 0.5606247
vt 0.1255907 0.6059968
vt 0.250718 0.2021726
vt 0.2600691 0.6490719
vt 0.2553936 0.4256224
vt 0.3858731 0.1726363
vt 0.3945476 0.6921472
vt 0.3902103 0.4323919
vt 0.5253886 0.2166374
vt 0.5150568 0.7765576
vt 0.5224971 0.4806238
vt 0.6355661 0.8609681
vt 0.6649041 0.2606385
vt 0.6547838 0.5288559
vt 0.799501 0.6225541
vt 0.8130857 0.389237
vt 0.963436 0.3841401
vt 0.8221217 0.1878674
vt 0.9713876 0.2496181
vt 0.9793392 0.1150962
vt 0.1155629 0.231709
vt 0.02723733 0.392161
vt 0.02949405 0.4763928
vt 0.1205768 0.418853
vt 0.03175077 0.5606247
vt 0.1255907 0.6059968
vt 0.250718 0.2021726
vt 0.2600691 0.6490719
vt 0.2553936 0.4256224
vt 0.3858731 0.1726363
vt 0.3945476 0.6921472
vt 0.3902103 0.4323919
vt 0.5253886 0.2166374
vt 0.5150568 0.7765576
vt 0.5224971 0.4806238
vt 0.6355661 0.8609681
vt 0.6649041 0.2606385
vt 0.6547838 0.5288559
vt 0.799501 0.6225541
vt 0.8130857 0.389237
vt 0.963436 0.3841401
vt 0.8221217 0.1878674
vt 0.9713876 0.2496181
vt 0.9793392 0.1150962
vn 0.1330617 0.9264576 0.3520948
vn 0.2006357 0.9665247 -0.1599226
vn 0.3127294 0.8599372 0.4033712
vn 0.1484765 0.9877883 -0.04721339
vn 0.0668986 0.8251234 -0.5609777
vn 0.06268633 0.8561537 -0.5129049
vn 0.0164804 0.9515296 0.3071153
vn 0.03103794 0.8840168 -0.4664237
vn 0.03238103 0.9956328 -0.08756002
vn -0.08554403 0.9577086 0.2747297
vn -0.03155712 0.8993779 -0.4360315
vn -0.05661215 0.9956109 -0.07452662
vn -0.1628516 0.9588589 0.2325274
vn -0.06836344 0.912774 -0.4027034
vn -0.1215556 0.9882535 -0.09262396
vn -0.1161578 0.9154983 -0.3851886
vn -0.03784377 0.9715167 0.2339294
vn -0.1091048 0.985117 -0.1328179
vn -0.1804287 0.9008922 -0.3947641
vn -0.06277832 0.9953584 -0.07294127
vn -0.1926675 0.8864291 -0.4208593
vn 0.07336833 0.95507 0.2871558
vn -0.02310298 0.9988913 0.04101772
vn 0.07977683 0.9477084 0.3090055
vn -0.1330617 0.9264576 0.3520948
vn -0.3127294 0.8599372 0.4033712
vn -0.2006357 0.9665247 -0.1599226
vn -0.1484765 0.9877883 -0.04721339
vn -0.0668986 0.8251234 -0.5609777
vn -0.06268633 0.8561537 -0.5129049
vn -0.0164804 0.9515296 0.3071153
vn -0.03103794 0.8840168 -0.4664237
vn -0.03238103 0.9956328 -0.08756002
vn 0.08554403 0.9577086 0.2747297
vn 0.03155712 0.8993779 -0.4360315
vn 0.05661215 0.9956109 -0.07452662
vn 0.1628516 0.9588589 0.2325274
vn 0.06836344 0.912774 -0.4027034
vn 0.1215556 0.9882535 -0.09262396
vn 0.1161578 0.9154983 -0.3851886
vn 0.03784377 0.9715167 0.2339294
vn 0.1091048 0.985117 -0.1328179
vn 0.1804287 0.9008922 -0.3947641
vn 0.06277832 0.9953584 -0.07294127
vn 0.1926675 0.8864291 -0.4208593
vn -0.07336833 0.95507 0.2871558
vn 0.02310298 0.9988913 0.04101772
vn -0.07977683 0.9477084 0.3090055
g HippoEffectWingsMesh_0
f 3/3/3 2/2/2 1/1/1
f 2/2/2 4/4/4 1/1/1
f 2/2/2 5/5/5 4/4/4
f 5/5/5 6/6/6 4/4/4
f 1/1/1 4/4/4 7/7/7
f 6/6/6 8/8/8 4/4/4
f 4/4/4 9/9/9 7/7/7
f 8/8/8 9/9/9 4/4/4
f 7/7/7 9/9/9 10/10/10
f 8/8/8 11/11/11 9/9/9
f 9/9/9 12/12/12 10/10/10
f 11/11/11 12/12/12 9/9/9
f 10/10/10 12/12/12 13/13/13
f 11/11/11 14/14/14 12/12/12
f 12/12/12 15/15/15 13/13/13
f 14/14/14 15/15/15 12/12/12
f 14/14/14 16/16/16 15/15/15
f 13/13/13 15/15/15 17/17/17
f 16/16/16 18/18/18 15/15/15
f 15/15/15 18/18/18 17/17/17
f 18/18/18 16/16/16 19/19/19
f 17/17/17 18/18/18 20/20/20
f 20/20/20 18/18/18 19/19/19
f 20/20/20 19/19/19 21/21/21
f 22/22/22 17/17/17 20/20/20
f 23/23/23 20/20/20 21/21/21
f 22/22/22 20/20/20 23/23/23
f 24/24/24 22/22/22 23/23/23
f 27/27/27 26/26/26 25/25/25
f 28/28/28 27/27/27 25/25/25
f 29/29/29 27/27/27 28/28/28
f 30/30/30 29/29/29 28/28/28
f 28/28/28 25/25/25 31/31/31
f 32/32/32 30/30/30 28/28/28
f 33/33/33 28/28/28 31/31/31
f 33/33/33 32/32/32 28/28/28
f 33/33/33 31/31/31 34/34/34
f 35/35/35 32/32/32 33/33/33
f 36/36/36 33/33/33 34/34/34
f 36/36/36 35/35/35 33/33/33
f 36/36/36 34/34/34 37/37/37
f 38/38/38 35/35/35 36/36/36
f 39/39/39 36/36/36 37/37/37
f 39/39/39 38/38/38 36/36/36
f 40/40/40 38/38/38 39/39/39
f 39/39/39 37/37/37 41/41/41
f 42/42/42 40/40/40 39/39/39
f 42/42/42 39/39/39 41/41/41
f 40/40/40 42/42/42 43/43/43
f 42/42/42 41/41/41 44/44/44
f 42/42/42 44/44/44 43/43/43
f 43/43/43 44/44/44 45/45/45
f 41/41/41 46/46/46 44/44/44
f 44/44/44 47/47/47 45/45/45
f 44/44/44 46/46/46 47/47/47
f 46/46/46 48/48/48 47/47/47
