g mdlWilloWispVoidEye
v -0.161514 -0.613556 -1.37116
v -0.1555004 -0.590422 -1.344218
v -0.1655268 -0.6575909 -1.277454
v -0.1278318 -0.5259299 -1.383553
v -0.1725904 -0.6871563 -1.296634
v -0.1555004 -0.7041483 -1.197317
v -0.1293858 -0.5356489 -1.42241
v -0.08795459 -0.4844974 -1.400957
v -0.161514 -0.7395812 -1.208371
v -0.1278318 -0.723321 -1.12858
v -0.1548989 -0.6377411 -1.393898
v -0.08108147 -0.4721189 -1.451808
v -0.04857166 -0.4563988 -1.41676
v -0.1293858 -0.7665895 -1.1241
v -0.08795459 -0.7275304 -1.087028
v -0.1661115 -0.7145301 -1.314394
v -0.1174824 -0.5395584 -1.463834
v -0.03538704 -0.4281071 -1.467191
v -0.02053216 -0.4268802 -1.439673
v -0.08108147 -0.7758399 -1.059487
v -0.04857166 -0.7345082 -1.057522
v -0.1548989 -0.7710305 -1.221726
v -0.06698252 -0.4543184 -1.495736
v -0.01550432 -0.4085545 -1.469375
v 0 -0.4108901 -1.452073
v 0 -0.402308 -1.507393
v 5.293735E-11 -0.3949007 -1.482071
v 0.01550432 -0.4085544 -1.469375
v 0.02053216 -0.4268801 -1.439673
v 0.03538704 -0.4281071 -1.467191
v 0.04857166 -0.4563988 -1.41676
v 0.08108147 -0.4721189 -1.451808
v 0.08795459 -0.4844974 -1.400957
v 0.06698252 -0.4543183 -1.495736
v 0.1293858 -0.5356489 -1.42241
v 0.1278318 -0.5259299 -1.383553
v 0.1174824 -0.5395584 -1.463834
v 0.161514 -0.613556 -1.37116
v 0.1555004 -0.590422 -1.344218
v 0.1655268 -0.6575909 -1.277454
v 0.1548989 -0.6377411 -1.393898
v 0.1725904 -0.6871563 -1.296634
v 0.1555004 -0.7041483 -1.197317
v 0.161514 -0.7395812 -1.208371
v 0.1278318 -0.723321 -1.12858
v 0.1661115 -0.7145301 -1.314394
v 0.1293858 -0.7665895 -1.1241
v 0.08795459 -0.7275304 -1.087028
v 0.1548989 -0.7710305 -1.221726
v 0.08108147 -0.7758399 -1.059487
v 0.04857166 -0.7345082 -1.057522
v 0.1174824 -0.8105799 -1.113752
v 0.03538704 -0.7771117 -1.016376
v 0.02053216 -0.7483433 -1.024434
v 0.06698252 -0.8152177 -1.029558
v 0.01550432 -0.7728845 -0.9987648
v 0 -0.7558253 -1.006515
v -1.905744E-09 -0.8099987 -0.9807729
v 2.646867E-11 -0.7814457 -0.9827651
v -0.01550432 -0.7728845 -0.9987647
v -0.02053216 -0.7483433 -1.024434
v -0.03538704 -0.7771117 -1.016376
v -0.06698252 -0.8152177 -1.029557
v -0.1174824 -0.8105799 -1.113752
v 0.04759225 -0.8360035 -1.008193
v 0.06489991 -0.8427824 -1.046381
v -3.38799E-09 -0.8619656 -1.031589
v -1.058747E-10 -0.8392148 -0.9847516
v -0.04759224 -0.8360035 -1.008193
v -0.06489991 -0.8427824 -1.046381
v -0.1029109 -0.8282818 -1.155031
v -0.0726645 -0.847465 -1.091173
v -0.04359508 -0.8615049 -1.104898
v 3.176241E-10 -0.8642693 -1.163477
v 0.04359508 -0.8615049 -1.104898
v 0.0726645 -0.847465 -1.091173
v 0.1029109 -0.8282818 -1.155031
v -0.1280769 -0.7924021 -1.242271
v -0.07043 -0.8394858 -1.188885
v 0.1280769 -0.7924022 -1.242271
v 0.07043 -0.8394858 -1.188885
v -0.02543093 -0.8608666 -1.16548
v -0.03953249 -0.8318781 -1.246044
v -0.0906086 -0.8037909 -1.266911
v -0.1373732 -0.7377374 -1.32945
v 0.02543093 -0.8608666 -1.16548
v 0.03953249 -0.8318781 -1.246044
v 0.0906086 -0.8037909 -1.266911
v 2.117494E-10 -0.7750515 -1.353658
v -0.06039417 -0.8037854 -1.292048
v 0.06039417 -0.8037854 -1.292048
v -0.05627443 -0.7677593 -1.348927
v -0.0969626 -0.7556694 -1.341083
v 0.1373732 -0.7377374 -1.32945
v 0.0969626 -0.7556694 -1.341083
v -0.06039417 -0.7210723 -1.398889
v -0.0906086 -0.6951661 -1.407223
v 0.1280769 -0.6659971 -1.40555
v 0.05627443 -0.7677593 -1.348927
v 0.0906086 -0.6951661 -1.407223
v 0.06039418 -0.7210723 -1.398889
v 0.1029109 -0.5879689 -1.465446
v 0.03953249 -0.6829658 -1.438396
v 1.323434E-10 -0.6085984 -1.493731
v 0.07043 -0.6265737 -1.463906
v 0.02543093 -0.6095349 -1.490128
v 0.04359508 -0.5473071 -1.510752
v 1.270496E-09 -0.471901 -1.53544
v 0.0726645 -0.528509 -1.503173
v 0.06489991 -0.4807912 -1.51397
v 0.04759224 -0.4391858 -1.520768
v -4.234988E-10 -0.4160892 -1.531309
v -0.04759225 -0.4391857 -1.520768
v -0.06489991 -0.4807912 -1.51397
v -0.04359508 -0.5473071 -1.510752
v -0.0726645 -0.528509 -1.503173
v -0.1029109 -0.5879689 -1.465446
v -0.1280769 -0.6659971 -1.40555
v -0.07043 -0.6265736 -1.463906
v -0.02543093 -0.6095349 -1.490128
v -0.03953249 -0.6829658 -1.438396
vt 0.639342 0.8518271
vt 0.6411238 0.8457727
vt 0.6227409 0.8434974
vt 0.6564385 0.849871
vt 0.6221789 0.8500148
vt 0.6041975 0.8447333
vt 0.6546749 0.8570167
vt 0.6674178 0.8558351
vt 0.6051627 0.8516758
vt 0.588733 0.8488107
vt 0.6378185 0.8567837
vt 0.6656072 0.8653154
vt 0.6747468 0.8639012
vt 0.5903204 0.8570068
vt 0.5773022 0.8546336
vt 0.6217728 0.855257
vt 0.6545747 0.8634816
vt 0.6704863 0.8735328
vt 0.6759332 0.8733457
vt 0.5798056 0.865167
vt 0.5697083 0.8632653
vt 0.6060439 0.8571004
vt 0.6648715 0.8717198
vt 0.6711814 0.8770204
vt 0.6746486 0.8791946
vt 0.6679849 0.8791947
vt 0.6699899 0.8791947
vt 0.6711815 0.8813689
vt 0.6759332 0.8850435
vt 0.6704863 0.8848565
vt 0.6747469 0.894488
vt 0.6656072 0.8930739
vt 0.6674179 0.9025541
vt 0.6648716 0.8866695
vt 0.654675 0.9013726
vt 0.6564386 0.9085183
vt 0.6545748 0.8949077
vt 0.639342 0.9065623
vt 0.6411239 0.9126167
vt 0.622741 0.914892
vt 0.6378186 0.9016056
vt 0.622179 0.9083745
vt 0.6041976 0.913656
vt 0.6051627 0.9067136
vt 0.588733 0.9095787
vt 0.6217728 0.9031324
vt 0.5903205 0.9013826
vt 0.5773023 0.9037559
vt 0.6060439 0.9012891
vt 0.5798056 0.8932225
vt 0.5697083 0.8951242
vt 0.5903605 0.8944241
vt 0.5750722 0.8850065
vt 0.5690038 0.8852018
vt 0.5810665 0.8865793
vt 0.574343 0.8815119
vt 0.5705252 0.8791947
vt 0.5781457 0.8791947
vt 0.5757003 0.8791947
vt 0.574343 0.8768777
vt 0.5690038 0.8731878
vt 0.5750721 0.873383
vt 0.5810665 0.8718103
vt 0.5903604 0.8639653
vt 0.5816936 0.8829125
vt 0.5846916 0.8854042
vt 0.5846441 0.8791947
vt 0.5807794 0.8791947
vt 0.5816936 0.875477
vt 0.5846915 0.8729854
vt 0.5961327 0.8668083
vt 0.5892153 0.8716021
vt 0.5910655 0.8747639
vt 0.5972201 0.8791947
vt 0.5910655 0.8836256
vt 0.5892153 0.8867874
vt 0.5961327 0.8915812
vt 0.6078879 0.8624762
vt 0.6001709 0.8709636
vt 0.607888 0.8959131
vt 0.6001709 0.8874259
vt 0.5974113 0.8764549
vt 0.6068639 0.8745434
vt 0.6103493 0.8679498
vt 0.6215276 0.860974
vt 0.5974113 0.8819345
vt 0.6068639 0.883846
vt 0.6103494 0.8904397
vt 0.6211984 0.8791947
vt 0.6131431 0.8719273
vt 0.6131431 0.8864623
vt 0.6212605 0.8723704
vt 0.6213647 0.8669915
vt 0.6215276 0.8974153
vt 0.6213647 0.8913979
vt 0.6295639 0.8718022
vt 0.6326324 0.8677193
vt 0.6354776 0.8962552
vt 0.6212605 0.886019
vt 0.6326324 0.8906701
vt 0.6295639 0.8865872
vt 0.6481212 0.8920832
vt 0.6361476 0.883994
vt 0.6467437 0.8791947
vt 0.6435488 0.8877776
vt 0.6465343 0.8820876
vt 0.6538137 0.8839154
vt 0.6612589 0.8791947
vt 0.6559438 0.8872104
vt 0.6610838 0.8857017
vt 0.6644639 0.8829728
vt 0.6655262 0.8791947
vt 0.6644639 0.8754166
vt 0.6610838 0.8726877
vt 0.6538137 0.8744738
vt 0.6559438 0.871179
vt 0.6481212 0.8663061
vt 0.6354776 0.8621342
vt 0.6435488 0.8706118
vt 0.6465343 0.8763019
vt 0.6361476 0.8743954
vn -0.9767825 0.1500555 -0.1529031
vn -0.9603202 0.2786942 -0.01071019
vn -0.9808359 0.156398 0.1161924
vn -0.8736086 0.4840688 -0.04985227
vn -0.9999561 -0.006710277 -0.0065424
vn -0.9560261 0.08472688 0.2807766
vn -0.9023179 0.3954411 -0.1716064
vn -0.7212881 0.69111 0.04593966
vn -0.9757097 -0.08473781 0.2020147
vn -0.8590785 0.1123711 0.4993564
vn -0.8645431 -0.1729725 -0.4718535
vn -0.746639 0.6652034 -0.005889127
vn -0.5939704 0.7750463 0.2156438
vn -0.8898913 -0.0207439 0.4557007
vn -0.693431 0.2603568 0.6718391
vn -0.8810626 -0.3748784 -0.2884354
vn -0.8405122 0.1281191 -0.5264263
vn -0.6406551 0.7591086 0.115391
vn -0.5564036 0.763406 0.3280644
vn -0.7199212 0.2063222 0.6626798
vn -0.5722582 0.4274564 0.6998582
vn -0.8782703 -0.4776196 -0.02282405
vn -0.7806959 0.5664738 -0.2638584
vn -0.5883034 0.7926196 0.160166
vn 0 0.881005 0.4731069
vn 0 0.9806579 -0.1957292
vn 0 0.999984 -0.005651413
vn 0.588303 0.7926199 0.160166
vn 0.5564032 0.7634064 0.3280643
vn 0.640655 0.7591088 0.1153913
vn 0.5939708 0.7750459 0.2156445
vn 0.7466388 0.6652036 -0.005888648
vn 0.721288 0.69111 0.0459401
vn 0.780697 0.5664728 -0.2638573
vn 0.9023178 0.3954412 -0.1716062
vn 0.8736086 0.484069 -0.04985224
vn 0.840513 0.1281194 -0.5264251
vn 0.9767825 0.1500555 -0.1529028
vn 0.9603203 0.2786939 -0.01071019
vn 0.9808359 0.1563977 0.1161926
vn 0.8645434 -0.1729722 -0.4718529
vn 0.9999561 -0.006710076 -0.00654229
vn 0.956026 0.08472679 0.2807767
vn 0.9757097 -0.08473789 0.2020147
vn 0.8590785 0.1123711 0.4993565
vn 0.8810629 -0.3748779 -0.288435
vn 0.889891 -0.02074418 0.4557013
vn 0.6934307 0.2603568 0.6718394
vn 0.8782704 -0.4776192 -0.02282382
vn 0.7199213 0.2063217 0.6626799
vn 0.5722582 0.4274563 0.6998583
vn 0.8507525 -0.4292702 0.3032281
vn 0.6149573 0.3344736 0.7141113
vn 0.5394689 0.5229073 0.6599554
vn 0.7597065 -0.04532239 0.6486847
vn 0.5614924 0.3897619 0.7299396
vn 0 0.6819821 0.7313689
vn 0 0.1472159 0.9891044
vn 0 0.3016201 0.9534283
vn -0.5614925 0.3897619 0.7299396
vn -0.5394696 0.5229076 0.6599547
vn -0.6149564 0.3344741 0.7141119
vn -0.7597064 -0.04532313 0.6486847
vn -0.8507529 -0.4292699 0.3032274
vn 0.5621424 -0.453655 0.691515
vn 0.6128892 -0.7092131 0.3484013
vn 0 -0.9648449 0.2628199
vn 0 -0.4607689 0.8875201
vn -0.5621424 -0.4536553 0.691515
vn -0.6128891 -0.7092139 0.3484001
vn -0.5886489 -0.8059124 -0.06322726
vn -0.5151796 -0.8521991 0.09135878
vn -0.2608221 -0.9653662 0.006305675
vn 0 -0.9815608 -0.1911502
vn 0.2608223 -0.9653662 0.006306612
vn 0.5151795 -0.8521993 0.09135878
vn 0.5886492 -0.8059122 -0.06322701
vn -0.6090128 -0.7503141 -0.2571615
vn -0.3985102 -0.8929895 -0.2091873
vn 0.609013 -0.7503142 -0.2571612
vn 0.3985099 -0.8929895 -0.2091875
vn -0.1306178 -0.9690189 -0.2096215
vn -0.1342409 -0.9157633 -0.3786252
vn -0.4215024 -0.8260891 -0.3740487
vn -0.6050427 -0.6309466 -0.485623
vn 0.1306177 -0.9690191 -0.2096213
vn 0.1342409 -0.9157633 -0.3786251
vn 0.421502 -0.8260892 -0.3740489
vn 0 -0.7926159 -0.6097213
vn -0.2557585 -0.8423427 -0.4743904
vn 0.2557586 -0.842343 -0.4743901
vn -0.2363073 -0.7690545 -0.5938972
vn -0.4279746 -0.7155846 -0.5520657
vn 0.6050433 -0.6309465 -0.4856225
vn 0.4279742 -0.7155848 -0.5520657
vn -0.2500146 -0.6753823 -0.693795
vn -0.4090799 -0.5805227 -0.7040221
vn 0.59005 -0.4586726 -0.664425
vn 0.2363068 -0.769055 -0.5938969
vn 0.4090789 -0.5805228 -0.7040225
vn 0.2500128 -0.675383 -0.6937949
vn 0.5610607 -0.3059959 -0.7691407
vn 0.1279491 -0.6062087 -0.7849458
vn 0 -0.463172 -0.8862684
vn 0.3788497 -0.4534123 -0.8067778
vn 0.1242174 -0.4738608 -0.8717948
vn 0.2423875 -0.293885 -0.9245971
vn 0 -0.08159339 -0.9966657
vn 0.4864647 -0.1877812 -0.8532821
vn 0.5957476 0.07266718 -0.7998777
vn 0.5684022 0.476457 -0.6707516
vn 0 0.679796 -0.7334013
vn -0.5684015 0.4764583 -0.6707512
vn -0.5957461 0.07266837 -0.7998787
vn -0.2423879 -0.2938849 -0.924597
vn -0.4864639 -0.1877815 -0.8532825
vn -0.5610605 -0.3059959 -0.7691408
vn -0.5900491 -0.458673 -0.6644254
vn -0.3788499 -0.4534123 -0.8067776
vn -0.124217 -0.4738607 -0.8717949
vn -0.1279505 -0.6062086 -0.7849458
g mdlWilloWispVoidEye_0
f 3/3/3 2/2/2 1/1/1
f 1/1/1 2/2/2 4/4/4
f 5/5/5 3/3/3 1/1/1
f 3/3/3 5/5/5 6/6/6
f 7/7/7 1/1/1 4/4/4
f 7/7/7 4/4/4 8/8/8
f 5/5/5 9/9/9 6/6/6
f 6/6/6 9/9/9 10/10/10
f 5/5/5 1/1/1 11/11/11
f 11/11/11 1/1/1 7/7/7
f 12/12/12 7/7/7 8/8/8
f 12/12/12 8/8/8 13/13/13
f 9/9/9 14/14/14 10/10/10
f 10/10/10 14/14/14 15/15/15
f 5/5/5 16/16/16 9/9/9
f 16/16/16 5/5/5 11/11/11
f 17/17/17 11/11/11 7/7/7
f 17/17/17 7/7/7 12/12/12
f 18/18/18 12/12/12 13/13/13
f 13/13/13 19/19/19 18/18/18
f 14/14/14 20/20/20 15/15/15
f 15/15/15 20/20/20 21/21/21
f 9/9/9 22/22/22 14/14/14
f 16/16/16 22/22/22 9/9/9
f 23/23/23 17/17/17 12/12/12
f 23/23/23 12/12/12 18/18/18
f 19/19/19 24/24/24 18/18/18
f 19/19/19 25/25/25 24/24/24
f 26/26/26 18/18/18 24/24/24
f 26/26/26 23/23/23 18/18/18
f 27/27/27 26/26/26 24/24/24
f 25/25/25 27/27/27 24/24/24
f 27/27/27 25/25/25 28/28/28
f 26/26/26 27/27/27 28/28/28
f 25/25/25 29/29/29 28/28/28
f 30/30/30 28/28/28 29/29/29
f 30/30/30 26/26/26 28/28/28
f 31/31/31 30/30/30 29/29/29
f 32/32/32 30/30/30 31/31/31
f 33/33/33 32/32/32 31/31/31
f 34/34/34 26/26/26 30/30/30
f 32/32/32 34/34/34 30/30/30
f 35/35/35 32/32/32 33/33/33
f 36/36/36 35/35/35 33/33/33
f 37/37/37 34/34/34 32/32/32
f 35/35/35 37/37/37 32/32/32
f 38/38/38 35/35/35 36/36/36
f 39/39/39 38/38/38 36/36/36
f 38/38/38 39/39/39 40/40/40
f 38/38/38 41/41/41 35/35/35
f 41/41/41 37/37/37 35/35/35
f 42/42/42 38/38/38 40/40/40
f 41/41/41 38/38/38 42/42/42
f 42/42/42 40/40/40 43/43/43
f 44/44/44 42/42/42 43/43/43
f 44/44/44 43/43/43 45/45/45
f 46/46/46 41/41/41 42/42/42
f 46/46/46 42/42/42 44/44/44
f 47/47/47 44/44/44 45/45/45
f 47/47/47 45/45/45 48/48/48
f 49/49/49 46/46/46 44/44/44
f 49/49/49 44/44/44 47/47/47
f 50/50/50 47/47/47 48/48/48
f 50/50/50 48/48/48 51/51/51
f 52/52/52 49/49/49 47/47/47
f 52/52/52 47/47/47 50/50/50
f 53/53/53 50/50/50 51/51/51
f 51/51/51 54/54/54 53/53/53
f 55/55/55 52/52/52 50/50/50
f 55/55/55 50/50/50 53/53/53
f 54/54/54 56/56/56 53/53/53
f 54/54/54 57/57/57 56/56/56
f 58/58/58 53/53/53 56/56/56
f 58/58/58 55/55/55 53/53/53
f 59/59/59 58/58/58 56/56/56
f 57/57/57 59/59/59 56/56/56
f 59/59/59 57/57/57 60/60/60
f 58/58/58 59/59/59 60/60/60
f 57/57/57 61/61/61 60/60/60
f 62/62/62 60/60/60 61/61/61
f 62/62/62 58/58/58 60/60/60
f 21/21/21 62/62/62 61/61/61
f 20/20/20 62/62/62 21/21/21
f 20/20/20 63/63/63 62/62/62
f 63/63/63 58/58/58 62/62/62
f 64/64/64 63/63/63 20/20/20
f 14/14/14 64/64/64 20/20/20
f 22/22/22 64/64/64 14/14/14
f 55/55/55 58/58/58 65/65/65
f 55/55/55 65/65/65 66/66/66
f 67/67/67 66/66/66 65/65/65
f 52/52/52 55/55/55 66/66/66
f 58/58/58 68/68/68 65/65/65
f 68/68/68 67/67/67 65/65/65
f 68/68/68 58/58/58 69/69/69
f 58/58/58 63/63/63 69/69/69
f 67/67/67 68/68/68 69/69/69
f 70/70/70 69/69/69 63/63/63
f 64/64/64 70/70/70 63/63/63
f 70/70/70 67/67/67 69/69/69
f 64/64/64 22/22/22 71/71/71
f 70/70/70 64/64/64 72/72/72
f 64/64/64 71/71/71 72/72/72
f 70/70/70 72/72/72 73/73/73
f 67/67/67 70/70/70 73/73/73
f 73/73/73 72/72/72 71/71/71
f 67/67/67 73/73/73 74/74/74
f 67/67/67 75/75/75 66/66/66
f 67/67/67 74/74/74 75/75/75
f 52/52/52 66/66/66 76/76/76
f 75/75/75 76/76/76 66/66/66
f 77/77/77 52/52/52 76/76/76
f 77/77/77 76/76/76 75/75/75
f 52/52/52 77/77/77 49/49/49
f 22/22/22 78/78/78 71/71/71
f 22/22/22 16/16/16 78/78/78
f 79/79/79 73/73/73 71/71/71
f 71/71/71 78/78/78 79/79/79
f 77/77/77 80/80/80 49/49/49
f 49/49/49 80/80/80 46/46/46
f 81/81/81 77/77/77 75/75/75
f 77/77/77 81/81/81 80/80/80
f 73/73/73 79/79/79 82/82/82
f 73/73/73 82/82/82 74/74/74
f 79/79/79 83/83/83 82/82/82
f 74/74/74 82/82/82 83/83/83
f 78/78/78 84/84/84 79/79/79
f 79/79/79 84/84/84 83/83/83
f 16/16/16 85/85/85 78/78/78
f 78/78/78 85/85/85 84/84/84
f 81/81/81 75/75/75 86/86/86
f 74/74/74 86/86/86 75/75/75
f 87/87/87 81/81/81 86/86/86
f 87/87/87 86/86/86 74/74/74
f 81/81/81 88/88/88 80/80/80
f 81/81/81 87/87/87 88/88/88
f 89/89/89 74/74/74 83/83/83
f 89/89/89 87/87/87 74/74/74
f 89/89/89 83/83/83 90/90/90
f 84/84/84 90/90/90 83/83/83
f 87/87/87 89/89/89 91/91/91
f 87/87/87 91/91/91 88/88/88
f 92/92/92 89/89/89 90/90/90
f 84/84/84 93/93/93 90/90/90
f 93/93/93 92/92/92 90/90/90
f 85/85/85 93/93/93 84/84/84
f 80/80/80 88/88/88 94/94/94
f 80/80/80 94/94/94 46/46/46
f 95/95/95 88/88/88 91/91/91
f 88/88/88 95/95/95 94/94/94
f 92/92/92 93/93/93 96/96/96
f 89/89/89 92/92/92 96/96/96
f 97/97/97 93/93/93 85/85/85
f 93/93/93 97/97/97 96/96/96
f 46/46/46 94/94/94 98/98/98
f 41/41/41 46/46/46 98/98/98
f 99/99/99 95/95/95 91/91/91
f 89/89/89 99/99/99 91/91/91
f 94/94/94 95/95/95 100/100/100
f 98/98/98 94/94/94 100/100/100
f 95/95/95 99/99/99 101/101/101
f 99/99/99 89/89/89 101/101/101
f 100/100/100 95/95/95 101/101/101
f 41/41/41 98/98/98 102/102/102
f 37/37/37 41/41/41 102/102/102
f 100/100/100 101/101/101 103/103/103
f 89/89/89 103/103/103 101/101/101
f 89/89/89 104/104/104 103/103/103
f 98/98/98 100/100/100 105/105/105
f 105/105/105 100/100/100 103/103/103
f 102/102/102 98/98/98 105/105/105
f 105/105/105 103/103/103 106/106/106
f 104/104/104 106/106/106 103/103/103
f 107/107/107 105/105/105 106/106/106
f 105/105/105 107/107/107 102/102/102
f 107/107/107 106/106/106 104/104/104
f 108/108/108 107/107/107 104/104/104
f 37/37/37 102/102/102 109/109/109
f 107/107/107 109/109/109 102/102/102
f 110/110/110 37/37/37 109/109/109
f 110/110/110 109/109/109 107/107/107
f 108/108/108 110/110/110 107/107/107
f 37/37/37 110/110/110 34/34/34
f 110/110/110 111/111/111 34/34/34
f 110/110/110 108/108/108 111/111/111
f 26/26/26 34/34/34 111/111/111
f 112/112/112 26/26/26 111/111/111
f 108/108/108 112/112/112 111/111/111
f 26/26/26 112/112/112 113/113/113
f 112/112/112 108/108/108 113/113/113
f 23/23/23 26/26/26 113/113/113
f 23/23/23 113/113/113 114/114/114
f 108/108/108 114/114/114 113/113/113
f 17/17/17 23/23/23 114/114/114
f 108/108/108 115/115/115 114/114/114
f 108/108/108 104/104/104 115/115/115
f 17/17/17 114/114/114 116/116/116
f 115/115/115 116/116/116 114/114/114
f 117/117/117 17/17/17 116/116/116
f 117/117/117 116/116/116 115/115/115
f 17/17/17 117/117/117 11/11/11
f 117/117/117 118/118/118 11/11/11
f 11/11/11 118/118/118 16/16/16
f 118/118/118 85/85/85 16/16/16
f 118/118/118 97/97/97 85/85/85
f 117/117/117 119/119/119 118/118/118
f 119/119/119 117/117/117 115/115/115
f 119/119/119 97/97/97 118/118/118
f 104/104/104 120/120/120 115/115/115
f 119/119/119 115/115/115 120/120/120
f 119/119/119 121/121/121 97/97/97
f 121/121/121 119/119/119 120/120/120
f 121/121/121 120/120/120 104/104/104
f 121/121/121 96/96/96 97/97/97
f 89/89/89 121/121/121 104/104/104
f 121/121/121 89/89/89 96/96/96
